<?xml version="1.0" encoding="UTF-8"?><svg id="Lager_1" xmlns="http://www.w3.org/2000/svg" viewBox="0 0 490.3292 149.7747"><defs><style>.cls-1{fill:#0578be;}.cls-2,.cls-3{fill:#79c08d;}.cls-3{stroke-miterlimit:10;}.cls-3,.cls-4{stroke:#79c08d;}.cls-4{fill:none;stroke-width:.702px;}</style></defs><g><g><path class="cls-1" d="M489.7492,50.5674c-.387,.829-.926,1.526-1.6169,2.088-.692,.564-1.518,.994-2.4771,1.29-.959,.297-2.631,.446-3.798,.446-1.638,0-2.637-.282-4.213-.845-1.577-.563-3.01-1.428-4.3-2.595l2.795-3.348c.983,.799,1.991,1.433,3.025,1.904,1.034,.471,2.165,.707,3.394,.707,.983,0,1.745-.179,2.288-.538,.543-.358,.814-.855,.814-1.489v-.062c0-.307-.056-.578-.169-.814-.113-.235-.329-.455-.647-.66-.318-.205-.76-.41-1.324-.614-.565-.205-1.299-.42-2.202-.645-1.088-.266-2.074-.563-2.957-.891s-1.632-.732-2.248-1.213c-.616-.481-1.093-1.08-1.432-1.797-.339-.717-.508-1.607-.508-2.672v-.062c0-.983,.183-1.868,.549-2.657,.366-.788,.88-1.469,1.541-2.042s1.451-1.014,2.369-1.321c.9171-.307,1.9301-.461,3.035-.461,1.577,0,3.026,.236,4.346,.707,1.321,.471,2.534,1.147,3.64,2.027l-2.457,3.563c-.963-.655-1.904-1.172-2.826-1.551-.921-.379-1.843-.568-2.764-.568-.9221,0-1.613,.179-2.0731,.537-.461,.359-.691,.804-.691,1.336v.062c0,.348,.066,.65,.2,.906,.133,.256,.374,.486,.723,.691s.827,.399,1.4319,.583c.606,.185,1.371,.4,2.295,.645,1.088,.287,2.058,.61,2.91,.968s1.57,.788,2.156,1.29c.585,.502,1.026,1.09,1.324,1.766,.298,.676,.447,1.485,.447,2.426v.062c0,1.065-.194,2.012-.58,2.841m-24.218,2.887c-1.526,.665-3.88,.998-5.846,.998-1.679,0-2.601-.276-3.983-.829-1.382-.553-2.57-1.321-3.563-2.304-.993-.982-1.766-2.15-2.319-3.501-.553-1.351-.829-2.826-.829-4.423v-.061c0-1.536,.281-2.974,.845-4.316,.562-1.341,1.346-2.518,2.349-3.532,1.003-1.013,2.191-1.812,3.563-2.396,1.372-.583,2.877-.875,4.515-.875,.962,0,1.838,.067,2.626,.2s1.521,.322,2.196,.568c.676,.246,1.31,.553,1.905,.921,.593,.369,1.167,.789,1.719,1.26l-2.979,3.593c-.41-.348-.819-.655-1.228-.921-.41-.266-.835-.492-1.275-.676-.441-.184-.917-.327-1.428-.43-.512-.102-1.075-.154-1.689-.154-.861,0-1.664,.18-2.412,.539-.747,.359-1.402,.842-1.965,1.447-.564,.606-1.004,1.314-1.321,2.124-.318,.811-.476,1.678-.476,2.602v.061c0,.985,.158,1.893,.476,2.724,.317,.832,.768,1.555,1.351,2.171,.584,.615,1.27,1.092,2.058,1.431,.788,.339,1.664,.508,2.626,.508,1.761,0,3.246-.433,4.454-1.299v-3.093h-4.761v-4.085h9.337v9.337c-1.105,.942-2.421,1.746-3.946,2.411m-24.547-13.53c0-1.023-.328-1.791-.983-2.303-.656-.512-1.566-.768-2.734-.768h-4.699v6.174h4.792c1.167,0,2.062-.277,2.687-.83,.624-.553,.937-1.29,.937-2.211v-.062Zm-.092,14.16l-4.607-6.88h-3.717v6.88h-4.73v-21.5h9.829c2.559,0,4.55,.624,5.974,1.873,1.423,1.249,2.134,2.99,2.134,5.222v.061c0,1.741-.425,3.159-1.274,4.254-.85,1.096-1.961,1.899-3.333,2.411l5.252,7.679h-5.528Zm-21.289-10.75c0-.922-.159-1.792-.476-2.611-.318-.819-.768-1.536-1.352-2.15-.583-.614-1.274-1.101-2.073-1.459-.798-.358-1.669-.538-2.61-.538-.963,0-1.839,.175-2.627,.523-.788,.348-1.464,.829-2.027,1.443-.563,.614-1.003,1.326-1.32,2.135-.318,.809-.477,1.674-.477,2.595v.062c0,.921,.159,1.792,.477,2.61,.317,.82,.767,1.536,1.351,2.15,.584,.615,1.269,1.101,2.058,1.459,.788,.359,1.663,.538,2.626,.538,.942,0,1.812-.174,2.611-.522,.798-.348,1.479-.83,2.042-1.444s1.003-1.325,1.321-2.135c.317-.808,.476-1.673,.476-2.595v-.061Zm4.085,4.315c-.574,1.341-1.367,2.519-2.38,3.532-1.014,1.014-2.222,1.812-3.625,2.396-1.402,.583-2.933,.875-4.591,.875-1.659,0-3.185-.292-4.577-.875-1.393-.584-2.595-1.372-3.609-2.365-1.013-.993-1.802-2.16-2.365-3.502-.563-1.34-.845-2.779-.845-4.315v-.061c0-1.536,.287-2.974,.86-4.316,.574-1.341,1.367-2.518,2.381-3.532,1.013-1.013,2.221-1.812,3.624-2.396,1.402-.583,2.933-.875,4.592-.875,1.658,0,3.184,.292,4.576,.875,1.393,.584,2.596,1.372,3.609,2.365,1.014,.994,1.802,2.161,2.365,3.502,.563,1.341,.845,2.779,.845,4.315v.062c0,1.535-.287,2.974-.86,4.315m-25.069,2.918c-.387,.829-.926,1.526-1.617,2.088-.692,.564-1.518,.994-2.476,1.29-.96,.297-2.023,.446-3.19,.446-1.638,0-3.246-.282-4.822-.845-1.577-.563-3.01-1.428-4.3-2.595l2.795-3.348c.983,.799,1.991,1.433,3.025,1.904,1.034,.471,2.166,.707,3.394,.707,.983,0,1.746-.179,2.288-.538,.543-.358,.814-.855,.814-1.489v-.062c0-.307-.056-.578-.169-.814-.113-.235-.329-.455-.647-.66-.318-.205-.76-.41-1.324-.614-.565-.205-1.299-.42-2.202-.645-1.088-.266-2.074-.563-2.957-.891-.883-.328-1.632-.732-2.247-1.213-.617-.481-1.094-1.08-1.433-1.797-.338-.717-.508-1.607-.508-2.672v-.062c0-.983,.183-1.868,.549-2.657,.366-.788,.88-1.469,1.541-2.042,.662-.573,1.451-1.014,2.369-1.321,.918-.307,1.93-.461,3.036-.461,1.576,0,3.025,.236,4.346,.707,1.32,.471,2.534,1.147,3.639,2.027l-2.457,3.563c-.963-.655-1.904-1.172-2.826-1.551-.921-.379-1.842-.568-2.764-.568-.921,0-1.612,.179-2.073,.537-.461,.359-.691,.804-.691,1.336v.062c0,.348,.066,.65,.2,.906,.133,.256,.374,.486,.724,.691,.349,.205,.826,.399,1.432,.583,.605,.185,1.37,.4,2.294,.645,1.088,.287,2.058,.61,2.91,.968s1.571,.788,2.156,1.29c.585,.502,1.027,1.09,1.324,1.766,.298,.676,.447,1.485,.447,2.426v.062c0,1.065-.193,2.012-.58,2.841m-24.437,3.517v-14.037l-6.051,9.184h-.123l-5.989-9.092v13.945h-4.669v-21.5h5.099l5.651,9.091,5.652-9.091h5.098v21.5h-4.668Zm-25.067-10.75c0-.922-.159-1.792-.476-2.611-.318-.819-.768-1.536-1.352-2.15-.583-.614-1.274-1.101-2.073-1.459-.798-.358-1.669-.538-2.61-.538-.963,0-1.839,.175-2.627,.523-.788,.348-1.464,.829-2.027,1.443-.563,.614-1.003,1.326-1.32,2.135-.318,.809-.476,1.674-.476,2.595v.062c0,.921,.158,1.792,.476,2.61,.317,.82,.767,1.536,1.351,2.15,.584,.615,1.269,1.101,2.058,1.459,.788,.359,1.663,.538,2.626,.538,.942,0,1.812-.174,2.611-.522,.798-.348,1.479-.83,2.042-1.444,.563-.614,1.003-1.325,1.321-2.135,.317-.808,.476-1.673,.476-2.595v-.061Zm4.085,4.315c-.574,1.341-1.367,2.519-2.38,3.532-1.014,1.014-2.222,1.812-3.625,2.396-1.402,.583-2.933,.875-4.591,.875-1.659,0-3.185-.292-4.577-.875-1.393-.584-2.595-1.372-3.609-2.365-1.013-.993-1.802-2.16-2.365-3.502-.563-1.34-.844-2.779-.844-4.315v-.061c0-1.536,.286-2.974,.86-4.316,.573-1.341,1.366-2.518,2.38-3.532,1.013-1.013,2.221-1.812,3.624-2.396,1.402-.583,2.933-.875,4.592-.875s3.184,.292,4.576,.875c1.393,.584,2.596,1.372,3.609,2.365,1.014,.994,1.802,2.161,2.365,3.502,.563,1.341,.845,2.779,.845,4.315v.062c0,1.535-.287,2.974-.86,4.315"/><path class="cls-1" d="M316.1705,54.0836v-8.63h-8.22v8.63h-4.73v-21.5h4.73v8.508h8.22v-8.508h4.73v21.5h-4.73Zm-17.65-1.873c-.594,.471-1.244,.875-1.951,1.213-.706,.338-1.479,.594-2.319,.768-.839,.174-1.781,.261-2.825,.261-1.577,0-3.041-.287-4.392-.86-1.352-.573-2.519-1.356-3.502-2.35-.983-.993-1.751-2.165-2.303-3.516-.553-1.352-.83-2.795-.83-4.331v-.062c0-1.535,.277-2.974,.83-4.315,.552-1.341,1.32-2.519,2.303-3.532,.983-1.014,2.16-1.812,3.532-2.396,1.372-.583,2.887-.875,4.546-.875,1.003,0,1.92,.082,2.749,.246,.829,.164,1.582,.389,2.257,.675,.676,.287,1.301,.635,1.874,1.045,.573,.409,1.106,.86,1.597,1.351l-3.01,3.471c-.84-.758-1.694-1.352-2.564-1.782-.871-.43-1.849-.645-2.934-.645-.901,0-1.735,.174-2.503,.522-.768,.349-1.428,.83-1.981,1.444-.553,.614-.983,1.326-1.29,2.135-.307,.809-.461,1.674-.461,2.595v.061c0,.922,.154,1.792,.461,2.611s.732,1.536,1.275,2.15c.542,.614,1.198,1.101,1.965,1.459,.768,.359,1.613,.538,2.534,.538,1.229,0,2.268-.226,3.118-.676,.849-.45,1.694-1.065,2.534-1.843l3.01,3.041c-.553,.594-1.127,1.126-1.72,1.597m-25.537-8.877c0-.921-.159-1.791-.476-2.61-.318-.819-.768-1.536-1.352-2.15-.583-.615-1.275-1.101-2.073-1.459-.799-.358-1.669-.538-2.611-.538-.963,0-1.838,.174-2.626,.522-.788,.349-1.464,.83-2.027,1.444-.563,.614-1.004,1.326-1.321,2.135-.317,.809-.476,1.674-.476,2.595v.061c0,.922,.159,1.792,.476,2.611,.317,.819,.768,1.536,1.352,2.15,.583,.614,1.269,1.101,2.058,1.459,.788,.359,1.663,.538,2.626,.538,.941,0,1.812-.174,2.61-.523,.799-.348,1.479-.829,2.043-1.443,.563-.614,1.003-1.326,1.321-2.135,.317-.808,.476-1.674,.476-2.595v-.062Zm4.085,4.316c-.574,1.341-1.367,2.518-2.381,3.532-1.013,1.014-2.222,1.812-3.624,2.396-1.403,.583-2.933,.875-4.592,.875-1.658,0-3.184-.292-4.576-.875-1.393-.584-2.596-1.372-3.609-2.365-1.014-.993-1.802-2.16-2.365-3.502-.564-1.341-.845-2.779-.845-4.315v-.062c0-1.535,.287-2.974,.86-4.315s1.367-2.519,2.381-3.532c1.013-1.014,2.221-1.812,3.624-2.396,1.402-.583,2.933-.875,4.592-.875,1.658,0,3.183,.292,4.576,.875,1.392,.584,2.595,1.372,3.609,2.365,1.014,.994,1.802,2.161,2.365,3.502,.563,1.341,.845,2.779,.845,4.315v.061c0,1.536-.287,2.975-.86,4.316m-35.214-4.316c0-.941-.159-1.812-.476-2.61-.318-.799-.758-1.485-1.321-2.058-.563-.573-1.244-1.019-2.042-1.336-.799-.317-1.679-.476-2.642-.476h-3.152v12.961h3.152c.963,0,1.843-.153,2.642-.461,.798-.307,1.479-.747,2.042-1.32,.563-.573,1.003-1.249,1.321-2.027,.317-.778,.476-1.648,.476-2.611v-.062Zm4.116,4.239c-.553,1.311-1.336,2.447-2.35,3.409-1.013,.963-2.222,1.72-3.624,2.273-1.403,.553-2.944,.829-4.623,.829h-7.882v-21.5h7.882c1.679,0,3.22,.272,4.623,.814,1.402,.543,2.611,1.296,3.624,2.258,1.014,.963,1.797,2.094,2.35,3.394,.553,1.3,.829,2.708,.829,4.223v.061c0,1.516-.276,2.929-.829,4.239m-27-7.648c0-1.024-.328-1.791-.983-2.303-.655-.512-1.566-.768-2.734-.768h-4.196v6.173h4.289c1.167,0,2.062-.276,2.687-.829s.937-1.29,.937-2.211v-.062Zm-.092,14.159l-4.607-6.88h-3.214v6.88h-4.73v-21.5h9.326c2.559,0,4.55,.625,5.974,1.874,1.423,1.249,2.134,2.99,2.134,5.221v.062c0,1.74-.425,3.159-1.274,4.254-.85,1.095-1.961,1.899-3.333,2.411l5.252,7.678h-5.528Zm-26.608-15.971l-2.857,6.972h5.713l-2.856-6.972Zm1.413-9.184c-.369-.368-.82-.552-1.352-.552-.533,0-.983,.184-1.351,.552-.369,.369-.553,.82-.553,1.352,0,.533,.184,.983,.553,1.351,.368,.369,.818,.553,1.351,.553,.532,0,.983-.184,1.352-.553,.368-.368,.552-.818,.552-1.351,0-.532-.184-.983-.552-1.352m5.098,25.155l-1.966-4.822h-9.091l-1.966,4.822h-4.822l8.969-21.1c-.39-.348-.702-.753-.937-1.214-.236-.46-.353-.956-.353-1.489,0-.492,.102-.957,.307-1.398,.204-.44,.476-.818,.814-1.136,.338-.317,.732-.573,1.182-.768,.45-.194,.922-.292,1.413-.292,.492,0,.962,.098,1.413,.292,.45,.195,.845,.451,1.182,.768,.338,.318,.609,.696,.814,1.136,.205,.441,.308,.906,.308,1.398,0,.533-.119,1.029-.354,1.489-.235,.461-.548,.866-.936,1.214l8.968,21.1h-4.945Zm-23.969,.154h-4.177l-8.692-21.654h5.221l5.621,15.143,5.621-15.143h5.098l-8.692,21.654Z"/><path class="cls-3" d="M437.7568,115.2123c-3.759,1.639-8.058,2.459-12.9,2.459-4.137,0-7.907-.681-11.312-2.043-3.404-1.362-6.33-3.253-8.776-5.674-2.447-2.421-4.351-5.296-5.713-8.625-1.361-3.329-2.042-6.961-2.042-10.896v-.151c0-3.783,.692-7.326,2.08-10.63,1.387-3.303,3.316-6.204,5.788-8.701,2.471-2.497,5.397-4.464,8.777-5.902,3.379-1.437,7.086-2.156,11.122-2.156,2.37,0,4.527,.164,6.469,.492,1.941,.329,3.745,.794,5.41,1.4,1.664,.605,3.227,1.361,4.691,2.269,1.462,.908,2.875,1.943,4.237,3.102l-7.34,8.853c-1.009-.857-2.018-1.614-3.026-2.27-1.01-.655-2.056-1.211-3.14-1.665-1.085-.454-2.258-.806-3.518-1.059-1.261-.252-2.648-.378-4.161-.378-2.119,0-4.099,.443-5.94,1.327-1.842,.885-3.455,2.073-4.842,3.565-1.388,1.492-2.472,3.235-3.253,5.232-.783,1.997-1.173,4.133-1.173,6.408v.151c0,2.427,.39,4.664,1.173,6.711,.781,2.048,1.891,3.831,3.329,5.346,1.437,1.517,3.127,2.692,5.069,3.527,1.941,.834,4.097,1.25,6.469,1.25,4.337,0,7.994-1.066,10.971-3.2v-7.619h-11.728v-10.063h23.001v23.001c-2.724,2.321-5.965,4.301-9.722,5.939m-80.833,1.551V63.8013h34.455v10.365h-22.954v10.744h19.549v10.366h-19.549v11.122h23.332v10.365h-34.833Zm-39.516,0V63.8013h11.652v42.445h19.421v10.517h-31.073Zm-39.382,0V63.8013h11.652v42.445h19.42v10.517h-31.072Zm-19.348-26.481c0-2.27-.391-4.413-1.172-6.431-.783-2.017-1.892-3.783-3.329-5.296-1.438-1.513-3.14-2.711-5.108-3.594-1.967-.882-4.111-1.324-6.431-1.324-2.371,0-4.528,.429-6.469,1.286-1.942,.858-3.607,2.043-4.993,3.556-1.388,1.513-2.472,3.267-3.254,5.259-.782,1.993-1.172,4.123-1.172,6.393v.151c0,2.27,.39,4.414,1.172,6.431,.782,2.018,1.892,3.783,3.329,5.296,1.438,1.514,3.127,2.712,5.07,3.594,1.941,.883,4.097,1.324,6.469,1.324,2.319,0,4.464-.428,6.431-1.286,1.967-.857,3.643-2.043,5.031-3.556,1.387-1.513,2.471-3.265,3.254-5.258,.781-1.992,1.172-4.124,1.172-6.394v-.151Zm10.063,10.63c-1.413,3.305-3.367,6.205-5.864,8.701-2.496,2.497-5.473,4.464-8.927,5.902-3.456,1.437-7.226,2.156-11.312,2.156s-7.844-.719-11.273-2.156c-3.431-1.438-6.393-3.379-8.89-5.826-2.497-2.446-4.439-5.321-5.826-8.625-1.388-3.303-2.081-6.848-2.081-10.631v-.151c0-3.783,.706-7.326,2.119-10.63,1.411-3.303,3.367-6.204,5.863-8.701,2.497-2.497,5.473-4.464,8.928-5.902,3.455-1.437,7.226-2.156,11.312-2.156s7.842,.719,11.273,2.156c3.43,1.438,6.393,3.38,8.89,5.826,2.497,2.447,4.438,5.322,5.826,8.626,1.387,3.304,2.081,6.847,2.081,10.63v.151c0,3.783-.707,7.327-2.119,10.63m-61.807,11.236c-1.464,1.161-3.064,2.156-4.804,2.989-1.741,.832-3.645,1.463-5.713,1.891-2.069,.428-4.388,.643-6.961,.643-3.884,0-7.49-.707-10.819-2.118-3.329-1.412-6.204-3.341-8.625-5.788-2.421-2.446-4.313-5.334-5.675-8.663s-2.043-6.886-2.043-10.669v-.151c0-3.783,.681-7.326,2.043-10.63,1.362-3.303,3.254-6.204,5.675-8.701,2.421-2.497,5.321-4.464,8.701-5.902,3.378-1.437,7.112-2.156,11.197-2.156,2.471,0,4.729,.202,6.772,.605,2.043,.405,3.897,.959,5.561,1.665,1.665,.707,3.203,1.564,4.615,2.572,1.412,1.01,2.724,2.119,3.935,3.329l-7.415,8.55c-2.069-1.865-4.174-3.329-6.318-4.388-2.144-1.06-4.552-1.589-7.225-1.589-2.22,0-4.275,.429-6.167,1.286-1.891,.858-3.518,2.043-4.88,3.556s-2.421,3.267-3.177,5.259c-.757,1.993-1.135,4.123-1.135,6.393v.151c0,2.27,.378,4.414,1.135,6.431,.756,2.018,1.802,3.783,3.139,5.296,1.336,1.514,2.951,2.712,4.843,3.594,1.891,.883,3.972,1.324,6.242,1.324,3.026,0,5.586-.554,7.679-1.664,2.093-1.109,4.173-2.622,6.242-4.54l7.415,7.491c-1.362,1.463-2.775,2.774-4.237,3.934"/><path class="cls-4" d="M437.7568,115.2123c-3.759,1.639-8.058,2.459-12.9,2.459-4.137,0-7.907-.681-11.312-2.043-3.404-1.362-6.33-3.253-8.776-5.674-2.447-2.421-4.351-5.296-5.713-8.625-1.361-3.329-2.042-6.961-2.042-10.896v-.151c0-3.783,.692-7.326,2.08-10.63,1.387-3.303,3.316-6.204,5.788-8.701,2.471-2.497,5.397-4.464,8.777-5.902,3.379-1.437,7.086-2.156,11.122-2.156,2.37,0,4.527,.164,6.469,.492,1.941,.329,3.745,.794,5.41,1.4,1.664,.605,3.227,1.361,4.691,2.269,1.462,.908,2.875,1.943,4.237,3.102l-7.34,8.853c-1.009-.857-2.018-1.614-3.026-2.27-1.01-.655-2.056-1.211-3.14-1.665-1.085-.454-2.258-.806-3.518-1.059-1.261-.252-2.648-.378-4.161-.378-2.119,0-4.099,.443-5.94,1.327-1.842,.885-3.455,2.073-4.842,3.565-1.388,1.492-2.472,3.235-3.253,5.232-.783,1.997-1.173,4.133-1.173,6.408v.151c0,2.427,.39,4.664,1.173,6.711,.781,2.048,1.891,3.831,3.329,5.346,1.437,1.517,3.127,2.692,5.069,3.527,1.941,.834,4.097,1.25,6.469,1.25,4.337,0,7.994-1.066,10.971-3.2v-7.619h-11.728v-10.063h23.001v23.001c-2.724,2.321-5.965,4.301-9.722,5.939Zm-80.833,1.551V63.8013h34.455v10.365h-22.954v10.744h19.549v10.366h-19.549v11.122h23.332v10.365h-34.833Zm-39.516,0V63.8013h11.652v42.445h19.421v10.517h-31.073Zm-39.382,0V63.8013h11.652v42.445h19.42v10.517h-31.072Zm-19.348-26.481c0-2.27-.391-4.413-1.172-6.431-.783-2.017-1.892-3.783-3.329-5.296-1.438-1.513-3.14-2.711-5.108-3.594-1.967-.882-4.111-1.324-6.431-1.324-2.371,0-4.528,.429-6.469,1.286-1.942,.858-3.607,2.043-4.993,3.556-1.388,1.513-2.472,3.267-3.254,5.259-.782,1.993-1.172,4.123-1.172,6.393v.151c0,2.27,.39,4.414,1.172,6.431,.782,2.018,1.892,3.783,3.329,5.296,1.438,1.514,3.127,2.712,5.07,3.594,1.941,.883,4.097,1.324,6.469,1.324,2.319,0,4.464-.428,6.431-1.286,1.967-.857,3.643-2.043,5.031-3.556,1.387-1.513,2.471-3.265,3.254-5.258,.781-1.992,1.172-4.124,1.172-6.394v-.151Zm10.063,10.63c-1.413,3.305-3.367,6.205-5.864,8.701-2.496,2.497-5.473,4.464-8.927,5.902-3.456,1.437-7.226,2.156-11.312,2.156s-7.844-.719-11.273-2.156c-3.431-1.438-6.393-3.379-8.89-5.826-2.497-2.446-4.439-5.321-5.826-8.625-1.388-3.303-2.081-6.848-2.081-10.631v-.151c0-3.783,.706-7.326,2.119-10.63,1.411-3.303,3.367-6.204,5.863-8.701,2.497-2.497,5.473-4.464,8.928-5.902,3.455-1.437,7.226-2.156,11.312-2.156s7.842,.719,11.273,2.156c3.43,1.438,6.393,3.38,8.89,5.826,2.497,2.447,4.438,5.322,5.826,8.626,1.387,3.304,2.081,6.847,2.081,10.63v.151c0,3.783-.707,7.327-2.119,10.63Zm-61.807,11.236c-1.464,1.161-3.064,2.156-4.804,2.989-1.741,.832-3.645,1.463-5.713,1.891-2.069,.428-4.388,.643-6.961,.643-3.884,0-7.49-.707-10.819-2.118-3.329-1.412-6.204-3.341-8.625-5.788-2.421-2.446-4.313-5.334-5.675-8.663s-2.043-6.886-2.043-10.669v-.151c0-3.783,.681-7.326,2.043-10.63,1.362-3.303,3.254-6.204,5.675-8.701,2.421-2.497,5.321-4.464,8.701-5.902,3.378-1.437,7.112-2.156,11.197-2.156,2.471,0,4.729,.202,6.772,.605,2.043,.405,3.897,.959,5.561,1.665,1.665,.707,3.203,1.564,4.615,2.572,1.412,1.01,2.724,2.119,3.935,3.329l-7.415,8.55c-2.069-1.865-4.174-3.329-6.318-4.388-2.144-1.06-4.552-1.589-7.225-1.589-2.22,0-4.275,.429-6.167,1.286-1.891,.858-3.518,2.043-4.88,3.556s-2.421,3.267-3.177,5.259c-.757,1.993-1.135,4.123-1.135,6.393v.151c0,2.27,.378,4.414,1.135,6.431,.756,2.018,1.802,3.783,3.139,5.296,1.336,1.514,2.951,2.712,4.843,3.594,1.891,.883,3.972,1.324,6.242,1.324,3.026,0,5.586-.554,7.679-1.664,2.093-1.109,4.173-2.622,6.242-4.54l7.415,7.491c-1.362,1.463-2.775,2.774-4.237,3.934Z"/></g><polygon class="cls-2" points="455.145 116.8013 455.145 63.8393 489.6 63.8393 489.6 74.2043 466.645 74.2043 466.645 84.9483 486.195 84.9483 486.195 95.3133 466.645 95.3133 466.645 106.4363 489.978 106.4363 489.978 116.8013 455.145 116.8013"/><polygon class="cls-4" points="455.145 116.8013 455.145 63.8393 489.6 63.8393 489.6 74.2043 466.645 74.2043 466.645 84.9483 486.195 84.9483 486.195 95.3133 466.645 95.3133 466.645 106.4363 489.978 106.4363 489.978 116.8013 455.145 116.8013"/></g><g><rect class="cls-1" x="83.8894" y="29.6573" width="21.8815" height="11.7505"/><rect class="cls-1" x="108.5529" y="44.1779" width="11.856" height="21.7875"/><rect class="cls-1" x="44.3695" y="83.5288" width="36.7211" height="21.7875"/><path class="cls-1" d="M83.8894,29.9616c.0932-11.4642-17.7244-11.4799-17.6399-.0023l-21.8815-.0949c-.0079-39.8278,61.4174-39.8099,61.4028-.0023l-21.8815,.0994Z"/><path class="cls-2" d="M75.0674,149.7747c-16.971,0-30.6967-12.9834-30.699-30.1423l21.8815-.0994c-.0934,11.464,17.7245,11.4794,17.6399,.0023l21.8815,.0949c.0012,17.2145-13.9003,30.1446-30.7039,30.1446Z"/><path class="cls-2" d="M29.9936,105.317c-39.999,.0094-39.983-61.1537-.0026-61.1391l.0998,21.7875c-11.5134-.0927-11.5295,17.6483-.0026,17.5641l-.0946,21.7875Z"/><path class="cls-1" d="M120.1484,105.317l-.0998-21.7875c11.5135,.0932,11.5288-17.5483,.0023-17.5645l.0953-21.7875c39.9988-.0084,39.9822,61.1536,.0023,61.1395Z"/><rect class="cls-2" x="44.3684" y="108.0864" width="21.8815" height="11.7508"/><rect class="cls-2" x="83.8894" y="44.1843" width="21.8815" height="75.68"/><rect class="cls-1" x="44.3684" y="29.6569" width="21.8815" height="75.642"/><rect class="cls-2" x="69.0316" y="44.1779" width="36.7215" height="21.7875"/><rect class="cls-2" x="29.8124" y="44.1779" width="11.7743" height="21.7875"/><rect class="cls-1" x="108.5529" y="83.5288" width="11.856" height="21.7875"/><rect class="cls-2" x="29.7576" y="83.5288" width="11.8291" height="21.7875"/></g></svg>