<?xml version="1.0" encoding="UTF-8"?><svg id="Lager_1" xmlns="http://www.w3.org/2000/svg" viewBox="0 0 195.5421 313.4038"><defs><style>.cls-1{fill:none;stroke:#79c08d;stroke-width:.418px;}.cls-2{fill:#0578be;}.cls-3{fill:#79c08d;}</style></defs><g><g><path class="cls-2" d="M194.8133,267.105c-.475,1.018-1.136,1.873-1.985,2.564-.85,.692-1.863,1.219-3.04,1.583s-3.229,.547-4.662,.547c-2.011,0-3.236-.346-5.171-1.037-1.936-.691-3.695-1.753-5.278-3.185l3.43-4.11c1.207,.981,2.444,1.76,3.714,2.338,1.268,.578,2.657,.867,4.165,.867,1.207,0,2.143-.22,2.809-.66,.666-.439,.999-1.049,.999-1.828v-.076c0-.377-.069-.709-.208-.999-.139-.288-.403-.559-.794-.81-.39-.251-.932-.503-1.625-.754s-1.594-.515-2.703-.792c-1.336-.326-2.545-.691-3.629-1.093s-2.003-.898-2.759-1.489c-.756-.591-1.342-1.326-1.758-2.206-.416-.879-.623-1.972-.623-3.28v-.075c0-1.206,.224-2.293,.673-3.261,.45-.967,1.08-1.803,1.892-2.507,.812-.703,1.781-1.244,2.907-1.621,1.127-.377,2.369-.566,3.726-.566,1.935,0,3.714,.29,5.335,.868,1.621,.578,3.11,1.407,4.467,2.488l-3.016,4.373c-1.182-.804-2.337-1.439-3.468-1.904-1.131-.465-2.262-.697-3.393-.697s-1.979,.22-2.545,.659c-.565,.44-.848,.987-.848,1.64v.076c0,.427,.082,.798,.245,1.112,.164,.314,.46,.597,.889,.848,.428,.252,1.014,.49,1.757,.716,.744,.226,1.682,.49,2.817,.792,1.335,.352,2.526,.748,3.572,1.188,1.045,.44,1.927,.967,2.646,1.583,.718,.616,1.26,1.338,1.625,2.168,.365,.829,.548,1.822,.548,2.978v.075c0,1.307-.237,2.47-.711,3.487m-29.726,3.544c-1.873,.817-4.762,1.225-7.175,1.225-2.061,0-3.193-.339-4.889-1.017-1.697-.679-3.155-1.622-4.373-2.828-1.22-1.206-2.168-2.639-2.847-4.298-.678-1.658-1.017-3.468-1.017-5.428v-.076c0-1.885,.345-3.65,1.036-5.297,.691-1.645,1.653-3.091,2.884-4.335,1.231-1.244,2.689-2.224,4.373-2.94,1.684-.717,3.531-1.075,5.542-1.075,1.181,0,2.256,.082,3.224,.245,.967,.164,1.866,.396,2.695,.698,.829,.301,1.608,.678,2.337,1.131,.729,.452,1.433,.967,2.112,1.545l-3.657,4.411c-.503-.427-1.006-.804-1.508-1.131-.503-.326-1.025-.603-1.565-.829-.541-.227-1.125-.402-1.753-.528-.628-.126-1.319-.189-2.073-.189-1.056,0-2.043,.221-2.96,.662-.917,.441-1.721,1.033-2.412,1.776-.692,.743-1.232,1.612-1.622,2.607-.389,.995-.584,2.059-.584,3.193v.075c0,1.209,.195,2.324,.584,3.344,.39,1.02,.943,1.909,1.659,2.664,.717,.756,1.558,1.341,2.526,1.757,.967,.416,2.042,.623,3.223,.623,2.162,0,3.984-.531,5.467-1.594v-3.797h-5.844v-5.014h11.461v11.461c-1.357,1.156-2.972,2.143-4.844,2.959m-30.129-16.606c0-1.257-.403-2.199-1.207-2.828-.804-.628-1.922-.942-3.355-.942h-5.768v7.577h5.881c1.433,0,2.532-.339,3.299-1.018,.766-.678,1.15-1.583,1.15-2.714v-.075Zm-.114,17.379l-5.654-8.445h-4.562v8.445h-5.806v-26.39h12.064c3.141,0,5.585,.767,7.333,2.3,1.746,1.533,2.62,3.67,2.62,6.409v.075c0,2.137-.522,3.878-1.565,5.222-1.043,1.345-2.407,2.331-4.09,2.959l6.446,9.425h-6.786Zm-26.13-13.195c0-1.131-.195-2.199-.584-3.204-.39-1.005-.943-1.885-1.659-2.639-.716-.754-1.564-1.351-2.545-1.791-.98-.439-2.048-.66-3.204-.66-1.182,0-2.256,.214-3.223,.641-.968,.428-1.798,1.018-2.489,1.772-.691,.754-1.231,1.628-1.621,2.62-.39,.993-.584,2.055-.584,3.186v.075c0,1.131,.194,2.2,.584,3.205s.943,1.885,1.659,2.639,1.558,1.351,2.526,1.79c.967,.44,2.042,.66,3.223,.66,1.156,0,2.225-.213,3.205-.641,.98-.427,1.815-1.018,2.507-1.772,.691-.754,1.231-1.627,1.621-2.62,.389-.992,.584-2.054,.584-3.185v-.076Zm5.014,5.297c-.704,1.646-1.677,3.091-2.921,4.335-1.245,1.244-2.728,2.225-4.449,2.941-1.722,.716-3.6,1.074-5.636,1.074s-3.908-.358-5.617-1.074c-1.71-.716-3.186-1.684-4.43-2.903-1.244-1.219-2.212-2.651-2.903-4.298-.691-1.645-1.037-3.411-1.037-5.296v-.076c0-1.885,.352-3.65,1.056-5.297,.703-1.645,1.678-3.091,2.922-4.335,1.244-1.244,2.726-2.224,4.448-2.94,1.722-.717,3.601-1.075,5.636-1.075,2.036,0,3.908,.358,5.618,1.075,1.708,.716,3.185,1.684,4.429,2.902,1.244,1.22,2.212,2.652,2.903,4.298,.691,1.646,1.037,3.412,1.037,5.297v.075c0,1.885-.352,3.651-1.056,5.297m-30.77,3.581c-.474,1.018-1.136,1.873-1.985,2.564-.849,.692-1.862,1.219-3.039,1.583-1.178,.364-2.482,.547-3.915,.547-2.011,0-3.984-.346-5.919-1.037-1.935-.691-3.694-1.753-5.278-3.185l3.431-4.11c1.206,.981,2.444,1.76,3.713,2.338,1.269,.578,2.658,.867,4.166,.867,1.206,0,2.142-.22,2.809-.66,.665-.439,.999-1.049,.999-1.828v-.076c0-.377-.07-.709-.208-.999-.139-.288-.404-.559-.794-.81-.391-.251-.933-.503-1.625-.754-.694-.251-1.594-.515-2.703-.792-1.336-.326-2.545-.691-3.629-1.093s-2.004-.898-2.759-1.489c-.757-.591-1.342-1.326-1.758-2.206-.416-.879-.624-1.972-.624-3.28v-.075c0-1.206,.225-2.293,.674-3.261,.449-.967,1.08-1.803,1.891-2.507,.812-.703,1.781-1.244,2.908-1.621,1.126-.377,2.369-.566,3.726-.566,1.935,0,3.713,.29,5.334,.868,1.621,.578,3.11,1.407,4.468,2.488l-3.016,4.373c-1.182-.804-2.338-1.439-3.469-1.904-1.131-.465-2.262-.697-3.393-.697s-1.979,.22-2.544,.659c-.566,.44-.849,.987-.849,1.64v.076c0,.427,.082,.798,.246,1.112,.164,.314,.46,.597,.888,.848,.429,.252,1.015,.49,1.758,.716,.743,.226,1.682,.49,2.816,.792,1.336,.352,2.526,.748,3.572,1.188,1.046,.44,1.928,.967,2.646,1.583,.718,.616,1.26,1.338,1.626,2.168,.365,.829,.548,1.822,.548,2.978v.075c0,1.307-.237,2.47-.712,3.487m-29.995,4.317v-17.229l-7.426,11.273h-.151l-7.352-11.159v17.115h-5.73v-26.39h6.258l6.937,11.159,6.937-11.159h6.258v26.39h-5.731Zm-30.767-13.195c0-1.131-.195-2.199-.584-3.204-.39-1.005-.943-1.885-1.659-2.639-.716-.754-1.565-1.351-2.545-1.791-.98-.439-2.049-.66-3.204-.66-1.182,0-2.256,.214-3.224,.641-.967,.428-1.797,1.018-2.488,1.772-.691,.754-1.231,1.628-1.621,2.62-.39,.993-.584,2.055-.584,3.186v.075c0,1.131,.194,2.2,.584,3.205s.943,1.885,1.659,2.639,1.558,1.351,2.526,1.79c.967,.44,2.041,.66,3.223,.66,1.156,0,2.224-.213,3.205-.641,.98-.427,1.815-1.018,2.507-1.772,.691-.754,1.231-1.627,1.621-2.62,.389-.992,.584-2.054,.584-3.185v-.076Zm5.014,5.297c-.704,1.646-1.678,3.091-2.922,4.335-1.244,1.244-2.727,2.225-4.448,2.941-1.722,.716-3.601,1.074-5.636,1.074s-3.909-.358-5.617-1.074c-1.71-.716-3.186-1.684-4.43-2.903-1.244-1.219-2.212-2.651-2.903-4.298-.692-1.645-1.037-3.411-1.037-5.296v-.076c0-1.885,.352-3.65,1.056-5.297,.703-1.645,1.677-3.091,2.922-4.335,1.244-1.244,2.726-2.224,4.448-2.94,1.721-.717,3.6-1.075,5.636-1.075s3.908,.358,5.617,1.075c1.709,.716,3.186,1.684,4.43,2.902,1.244,1.22,2.211,2.652,2.903,4.298,.691,1.646,1.037,3.412,1.037,5.297v.075c0,1.885-.353,3.651-1.056,5.297"/><path class="cls-2" d="M189.3517,235.7147v-10.594h-10.09v10.594h-5.805v-26.39h5.805v10.443h10.09v-10.443h5.806v26.39h-5.806Zm-21.665-2.3c-.729,.578-1.527,1.074-2.394,1.489-.867,.415-1.816,.729-2.846,.942-1.031,.214-2.187,.321-3.468,.321-1.936,0-3.733-.352-5.391-1.056-1.659-.703-3.092-1.664-4.298-2.884-1.206-1.218-2.149-2.657-2.828-4.316-.678-1.659-1.017-3.431-1.017-5.316v-.075c0-1.885,.339-3.651,1.017-5.297,.679-1.646,1.622-3.091,2.828-4.335,1.206-1.245,2.651-2.225,4.335-2.941,1.684-.716,3.544-1.074,5.58-1.074,1.231,0,2.356,.1,3.374,.301,1.018,.202,1.941,.478,2.771,.83,.829,.352,1.596,.779,2.299,1.281,.704,.503,1.358,1.056,1.961,1.659l-3.695,4.26c-1.031-.929-2.08-1.659-3.148-2.186-1.068-.528-2.268-.792-3.6-.792-1.106,0-2.13,.214-3.072,.641-.943,.427-1.753,1.018-2.432,1.772-.679,.754-1.206,1.627-1.583,2.62s-.566,2.054-.566,3.185v.076c0,1.131,.189,2.199,.566,3.204,.377,1.006,.898,1.885,1.564,2.639,.666,.754,1.47,1.351,2.413,1.791,.942,.44,1.979,.66,3.11,.66,1.508,0,2.783-.277,3.827-.83,1.042-.552,2.079-1.306,3.11-2.262l3.694,3.732c-.678,.73-1.382,1.383-2.111,1.961m-31.345-10.895c0-1.131-.195-2.199-.584-3.205-.39-1.005-.942-1.885-1.659-2.639-.716-.754-1.564-1.35-2.544-1.79-.981-.44-2.049-.66-3.205-.66-1.181,0-2.256,.214-3.223,.641-.968,.427-1.797,1.018-2.488,1.772-.692,.754-1.232,1.627-1.621,2.62-.39,.993-.585,2.054-.585,3.185v.076c0,1.131,.195,2.199,.585,3.204,.389,1.006,.942,1.885,1.658,2.639,.717,.754,1.558,1.351,2.526,1.791,.967,.44,2.042,.66,3.224,.66,1.155,0,2.224-.214,3.204-.641,.98-.427,1.815-1.018,2.507-1.772,.691-.754,1.231-1.627,1.621-2.62,.389-.993,.584-2.055,.584-3.186v-.075Zm5.014,5.296c-.703,1.647-1.677,3.092-2.921,4.336-1.244,1.244-2.728,2.224-4.449,2.94-1.722,.717-3.6,1.075-5.636,1.075s-3.908-.358-5.617-1.075c-1.709-.716-3.186-1.683-4.43-2.902s-2.212-2.652-2.903-4.298c-.691-1.646-1.036-3.412-1.036-5.297v-.075c0-1.885,.351-3.651,1.055-5.297,.704-1.646,1.678-3.091,2.922-4.335,1.244-1.245,2.727-2.225,4.449-2.941,1.721-.716,3.6-1.074,5.636-1.074s3.907,.358,5.617,1.074c1.709,.716,3.185,1.684,4.429,2.903,1.245,1.219,2.212,2.652,2.903,4.298,.691,1.646,1.037,3.411,1.037,5.296v.076c0,1.885-.352,3.651-1.056,5.296m-43.221-5.296c0-1.156-.195-2.225-.585-3.205-.39-.98-.93-1.822-1.621-2.526-.691-.703-1.527-1.25-2.507-1.639-.98-.39-2.061-.585-3.242-.585h-3.869v15.909h3.869c1.181,0,2.262-.188,3.242-.565s1.816-.917,2.507-1.621c.691-.704,1.231-1.533,1.621-2.488s.585-2.023,.585-3.205v-.075Zm5.051,5.202c-.678,1.609-1.64,3.004-2.884,4.185-1.244,1.182-2.727,2.111-4.448,2.79-1.722,.678-3.613,1.018-5.674,1.018h-9.675v-26.39h9.675c2.061,0,3.952,.333,5.674,.999,1.721,.666,3.204,1.59,4.448,2.771,1.244,1.182,2.206,2.57,2.884,4.166,.679,1.596,1.018,3.324,1.018,5.183v.076c0,1.86-.339,3.594-1.018,5.202m-33.14-9.387c0-1.256-.402-2.199-1.206-2.827-.805-.628-1.923-.943-3.355-.943h-5.151v7.578h5.264c1.432,0,2.531-.34,3.298-1.018,.767-.679,1.15-1.584,1.15-2.714v-.076Zm-.113,17.38l-5.655-8.445h-3.944v8.445h-5.806v-26.39h11.447c3.141,0,5.585,.767,7.332,2.3s2.62,3.669,2.62,6.409v.075c0,2.136-.522,3.877-1.564,5.221-1.043,1.345-2.407,2.332-4.091,2.96l6.447,9.425h-6.786Zm-32.659-19.604l-3.506,8.558h7.012l-3.506-8.558Zm1.734-11.272c-.452-.453-1.005-.679-1.659-.679s-1.206,.226-1.658,.679c-.453,.452-.679,1.005-.679,1.659,0,.653,.226,1.206,.679,1.658,.452,.453,1.004,.679,1.658,.679s1.207-.226,1.659-.679c.452-.452,.679-1.005,.679-1.658,0-.654-.227-1.207-.679-1.659m6.258,30.876l-2.413-5.919h-11.159l-2.412,5.919h-5.919l11.008-25.9c-.478-.427-.861-.924-1.15-1.489-.289-.566-.433-1.175-.433-1.828,0-.604,.125-1.175,.377-1.716,.251-.54,.584-1.005,.999-1.395,.414-.389,.898-.703,1.451-.942s1.131-.358,1.734-.358,1.181,.119,1.734,.358,1.037,.553,1.452,.942c.415,.39,.747,.855,.999,1.395,.251,.541,.377,1.112,.377,1.716,0,.653-.145,1.262-.434,1.828-.289,.565-.672,1.062-1.149,1.489l11.008,25.9h-6.07Zm-29.42,.188h-5.127L.0497,209.3247H6.4587l6.899,18.586,6.899-18.586h6.258l-10.669,26.578Z"/><path class="cls-3" d="M164.237,311.7308c-2.238,.975-4.798,1.464-7.682,1.464-2.463,0-4.708-.406-6.735-1.217-2.027-.811-3.77-1.937-5.226-3.379-1.457-1.441-2.591-3.153-3.402-5.136-.811-1.982-1.216-4.144-1.216-6.487v-.09c0-2.253,.412-4.363,1.239-6.33,.826-1.967,1.974-3.695,3.446-5.181,1.472-1.487,3.214-2.659,5.226-3.515,2.012-.856,4.22-1.284,6.623-1.284,1.412,0,2.696,.098,3.852,.293,1.156,.196,2.23,.473,3.222,.834,.991,.36,1.921,.811,2.793,1.351,.871,.541,1.712,1.157,2.523,1.848l-4.37,5.271c-.601-.511-1.202-.961-1.802-1.352-.602-.39-1.225-.721-1.87-.991-.646-.27-1.345-.48-2.095-.631-.751-.15-1.577-.225-2.478-.225-1.261,0-2.441,.264-3.537,.79-1.096,.527-2.057,1.235-2.883,2.123-.826,.888-1.472,1.927-1.937,3.116-.466,1.189-.699,2.461-.699,3.815v.09c0,1.445,.233,2.777,.699,3.997,.465,1.219,1.126,2.28,1.982,3.183s1.862,1.603,3.019,2.1c1.155,.497,2.439,.745,3.852,.745,2.582,0,4.76-.635,6.532-1.906v-4.537h-6.983v-5.992h13.696v13.696c-1.622,1.382-3.552,2.561-5.789,3.537m-48.133,.923v-31.537h20.517v6.172h-13.669v6.398h11.641v6.172h-11.641v6.623h13.894v6.172h-20.742Zm-23.53,0v-31.537h6.938v25.275h11.564v6.262h-18.502Zm-23.451,0v-31.537h6.938v25.275h11.564v6.262h-18.502Zm-11.521-15.768c0-1.352-.233-2.628-.698-3.83-.466-1.201-1.127-2.253-1.983-3.154-.856-.901-1.869-1.614-3.041-2.14-1.171-.525-2.448-.788-3.829-.788-1.412,0-2.696,.255-3.852,.766-1.157,.511-2.148,1.216-2.974,2.117-.826,.901-1.472,1.945-1.937,3.132-.466,1.186-.698,2.455-.698,3.807v.09c0,1.351,.232,2.628,.698,3.829,.465,1.202,1.126,2.253,1.982,3.154s1.862,1.615,3.019,2.14c1.156,.526,2.44,.788,3.852,.788,1.381,0,2.658-.254,3.829-.766,1.172-.51,2.17-1.216,2.996-2.117,.826-.901,1.472-1.944,1.938-3.131,.465-1.186,.698-2.456,.698-3.807v-.09Zm5.992,6.33c-.841,1.967-2.005,3.694-3.492,5.181-1.486,1.486-3.259,2.658-5.316,3.514-2.058,.856-4.302,1.284-6.735,1.284s-4.671-.428-6.713-1.284c-2.043-.856-3.807-2.012-5.294-3.469-1.487-1.457-2.643-3.169-3.469-5.136-.827-1.967-1.239-4.078-1.239-6.33v-.09c0-2.253,.42-4.363,1.261-6.33,.841-1.967,2.005-3.695,3.492-5.181,1.487-1.487,3.259-2.659,5.316-3.515,2.057-.856,4.303-1.284,6.736-1.284s4.67,.428,6.713,1.284c2.042,.856,3.807,2.013,5.293,3.47,1.487,1.457,2.643,3.169,3.47,5.136,.825,1.967,1.239,4.077,1.239,6.33v.09c0,2.252-.421,4.363-1.262,6.33m-36.804,6.69c-.871,.691-1.825,1.284-2.861,1.78-1.036,.495-2.17,.871-3.401,1.126-1.232,.255-2.613,.383-4.145,.383-2.313,0-4.461-.421-6.443-1.262-1.982-.84-3.694-1.989-5.136-3.446-1.442-1.457-2.568-3.176-3.379-5.159-.811-1.982-1.216-4.1-1.216-6.352v-.09c0-2.253,.405-4.363,1.216-6.33s1.937-3.695,3.379-5.181c1.442-1.487,3.169-2.659,5.181-3.515,2.012-.856,4.235-1.284,6.668-1.284,1.471,0,2.816,.121,4.032,.361,1.217,.241,2.321,.571,3.312,.991,.991,.421,1.907,.931,2.748,1.532,.84,.601,1.622,1.261,2.343,1.982l-4.415,5.091c-1.232-1.111-2.486-1.982-3.762-2.613-1.277-.631-2.711-.946-4.303-.946-1.322,0-2.546,.255-3.672,.766-1.126,.511-2.095,1.216-2.906,2.117-.811,.901-1.441,1.945-1.892,3.132-.451,1.186-.676,2.455-.676,3.807v.09c0,1.351,.225,2.628,.676,3.829,.451,1.202,1.074,2.253,1.87,3.154,.795,.901,1.757,1.615,2.883,2.14,1.126,.526,2.365,.788,3.717,.788,1.802,0,3.326-.33,4.573-.991,1.246-.66,2.485-1.561,3.717-2.703l4.415,4.46c-.811,.872-1.652,1.652-2.523,2.343"/><path class="cls-1" d="M164.237,311.7308c-2.238,.975-4.798,1.464-7.682,1.464-2.463,0-4.708-.406-6.735-1.217-2.027-.811-3.77-1.937-5.226-3.379-1.457-1.441-2.591-3.153-3.402-5.136-.811-1.982-1.216-4.144-1.216-6.487v-.09c0-2.253,.412-4.363,1.239-6.33,.826-1.967,1.974-3.695,3.446-5.181,1.472-1.487,3.214-2.659,5.226-3.515,2.012-.856,4.22-1.284,6.623-1.284,1.412,0,2.696,.098,3.852,.293,1.156,.196,2.23,.473,3.222,.834,.991,.36,1.921,.811,2.793,1.351,.871,.541,1.712,1.157,2.523,1.848l-4.37,5.271c-.601-.511-1.202-.961-1.802-1.352-.602-.39-1.225-.721-1.87-.991-.646-.27-1.345-.48-2.095-.631-.751-.15-1.577-.225-2.478-.225-1.261,0-2.441,.264-3.537,.79-1.096,.527-2.057,1.235-2.883,2.123-.826,.888-1.472,1.927-1.937,3.116-.466,1.189-.699,2.461-.699,3.815v.09c0,1.445,.233,2.777,.699,3.997,.465,1.219,1.126,2.28,1.982,3.183s1.862,1.603,3.019,2.1c1.155,.497,2.439,.745,3.852,.745,2.582,0,4.76-.635,6.532-1.906v-4.537h-6.983v-5.992h13.696v13.696c-1.622,1.382-3.552,2.561-5.789,3.537Zm-48.133,.923v-31.537h20.517v6.172h-13.669v6.398h11.641v6.172h-11.641v6.623h13.894v6.172h-20.742Zm-23.53,0v-31.537h6.938v25.275h11.564v6.262h-18.502Zm-23.451,0v-31.537h6.938v25.275h11.564v6.262h-18.502Zm-11.521-15.768c0-1.352-.233-2.628-.698-3.83-.466-1.201-1.127-2.253-1.983-3.154-.856-.901-1.869-1.614-3.041-2.14-1.171-.525-2.448-.788-3.829-.788-1.412,0-2.696,.255-3.852,.766-1.157,.511-2.148,1.216-2.974,2.117-.826,.901-1.472,1.945-1.937,3.132-.466,1.186-.698,2.455-.698,3.807v.09c0,1.351,.232,2.628,.698,3.829,.465,1.202,1.126,2.253,1.982,3.154s1.862,1.615,3.019,2.14c1.156,.526,2.44,.788,3.852,.788,1.381,0,2.658-.254,3.829-.766,1.172-.51,2.17-1.216,2.996-2.117,.826-.901,1.472-1.944,1.938-3.131,.465-1.186,.698-2.456,.698-3.807v-.09Zm5.992,6.33c-.841,1.967-2.005,3.694-3.492,5.181-1.486,1.486-3.259,2.658-5.316,3.514-2.058,.856-4.302,1.284-6.735,1.284s-4.671-.428-6.713-1.284c-2.043-.856-3.807-2.012-5.294-3.469-1.487-1.457-2.643-3.169-3.469-5.136-.827-1.967-1.239-4.078-1.239-6.33v-.09c0-2.253,.42-4.363,1.261-6.33,.841-1.967,2.005-3.695,3.492-5.181,1.487-1.487,3.259-2.659,5.316-3.515,2.057-.856,4.303-1.284,6.736-1.284s4.67,.428,6.713,1.284c2.042,.856,3.807,2.013,5.293,3.47,1.487,1.457,2.643,3.169,3.47,5.136,.825,1.967,1.239,4.077,1.239,6.33v.09c0,2.252-.421,4.363-1.262,6.33Zm-36.804,6.69c-.871,.691-1.825,1.284-2.861,1.78-1.036,.495-2.17,.871-3.401,1.126-1.232,.255-2.613,.383-4.145,.383-2.313,0-4.461-.421-6.443-1.262-1.982-.84-3.694-1.989-5.136-3.446-1.442-1.457-2.568-3.176-3.379-5.159-.811-1.982-1.216-4.1-1.216-6.352v-.09c0-2.253,.405-4.363,1.216-6.33s1.937-3.695,3.379-5.181c1.442-1.487,3.169-2.659,5.181-3.515,2.012-.856,4.235-1.284,6.668-1.284,1.471,0,2.816,.121,4.032,.361,1.217,.241,2.321,.571,3.312,.991,.991,.421,1.907,.931,2.748,1.532,.84,.601,1.622,1.261,2.343,1.982l-4.415,5.091c-1.232-1.111-2.486-1.982-3.762-2.613-1.277-.631-2.711-.946-4.303-.946-1.322,0-2.546,.255-3.672,.766-1.126,.511-2.095,1.216-2.906,2.117-.811,.901-1.441,1.945-1.892,3.132-.451,1.186-.676,2.455-.676,3.807v.09c0,1.351,.225,2.628,.676,3.829,.451,1.202,1.074,2.253,1.87,3.154,.795,.901,1.757,1.615,2.883,2.14,1.126,.526,2.365,.788,3.717,.788,1.802,0,3.326-.33,4.573-.991,1.246-.66,2.485-1.561,3.717-2.703l4.415,4.46c-.811,.872-1.652,1.652-2.523,2.343Z"/></g><polygon class="cls-3" points="174.5911 312.6765 174.5911 281.1395 195.1081 281.1395 195.1081 287.3115 181.4391 287.3115 181.4391 293.7095 193.0801 293.7095 193.0801 299.8815 181.4391 299.8815 181.4391 306.5045 195.3331 306.5045 195.3331 312.6765 174.5911 312.6765"/><polygon class="cls-1" points="174.5911 312.6765 174.5911 281.1395 195.1081 281.1395 195.1081 287.3115 181.4391 287.3115 181.4391 293.7095 193.0801 293.7095 193.0801 299.8815 181.4391 299.8815 181.4391 306.5045 195.3331 306.5045 195.3331 312.6765 174.5911 312.6765"/></g><g><rect class="cls-2" x="109.1772" y="39.0265" width="28.25" height="15.2358"/><rect class="cls-2" x="141.019" y="57.8541" width="15.3066" height="28.25"/><rect class="cls-2" x="58.1553" y="108.8771" width="47.4087" height="28.25"/><path class="cls-2" d="M109.1772,39.421c.1203-14.8646-22.883-14.885-22.7739-.0029l-28.25-.123c-.0102-51.6414,79.2928-51.6181,79.2739-.0029l-28.25,.1289Z"/><path class="cls-3" d="M97.7876,194.7726c-21.9104,0-39.6309-16.8345-39.6338-39.083l28.25-.1289c-.1206,14.8644,22.8832,14.8844,22.7739,.0029l28.25,.123c.0015,22.3206-17.9459,39.0859-39.6401,39.0859Z"/><path class="cls-3" d="M39.5952,137.1281c-51.6405,.0122-51.6199-79.2928-.0034-79.2739l.1289,28.25c-14.8643-.1202-14.8851,22.8831-.0034,22.7739l-.1221,28.25Z"/><path class="cls-2" d="M155.9893,137.1281l-.1289-28.25c14.8645,.1208,14.8842-22.7534,.0029-22.7744l.123-28.25c51.6403-.0108,51.6189,79.2928,.0029,79.2744Z"/><rect class="cls-3" x="58.1538" y="140.7189" width="28.25" height="15.2363"/><rect class="cls-3" x="109.1772" y="57.8624" width="28.25" height="98.1279"/><rect class="cls-2" x="58.1538" y="39.026" width="28.25" height="98.0786"/><rect class="cls-3" x="89.9951" y="57.8541" width="47.4092" height="28.25"/><rect class="cls-3" x="39.3613" y="57.8541" width="15.2012" height="28.25"/><rect class="cls-2" x="141.019" y="108.8771" width="15.3066" height="28.25"/><rect class="cls-3" x="39.2905" y="108.8771" width="15.272" height="28.25"/></g></svg>