<svg id="Lager_1" data-name="Lager 1" xmlns="http://www.w3.org/2000/svg" viewBox="0 0 985.0713 847.5142"><defs><style>.cls-1{fill:#d1ddf2;}.cls-2{fill:#e3f0e4;}</style></defs><rect class="cls-1" x="694.4358" y="204.9879" width="103.8105" height="172.6923" transform="translate(-120.1604 292.8709) rotate(-30)"/><rect class="cls-1" x="707.4398" y="252.0815" width="172.953" height="103.8105" transform="translate(-120.1129 318.3537) rotate(-30)"/><rect class="cls-1" x="625.9691" y="461.3933" width="360.7946" height="103.8105" transform="translate(-223.1008 352.6212) rotate(-30)"/><path class="cls-1" d="M658.9416,243.7643c-26.9288-47.5262-100.1717-5.3257-72.4809,41.8344l-90.1286,51.5137c-94.9161-164.3243,157.5-309.9581,252.2752-145.6636Z" transform="translate(-74.4841 -119.3309)"/><path class="cls-2" d="M583.3716,946.58c-69.7274,40.2571-157.0521,19.2421-197.94-51.5561l89.6657-52.3155c26.9275,47.5261,100.1711,5.3233,72.4809-41.8344l90.1286-51.5137C678.7229,820.3907,652.411,906.7205,583.3716,946.58Z" transform="translate(-74.4841 -119.3309)"/><path class="cls-2" d="M292.2673,870.053C127.9494,964.9737-17.6964,712.5564,146.6021,617.7787l52.3155,89.6657c-47.525,26.9285-5.326,100.1721,41.8329,72.4818Z" transform="translate(-74.4841 -119.3309)"/><path class="cls-1" d="M987.4381,468.696,935.1226,379.03c47.5266-26.927,5.5612-99.7578-41.8353-72.4825l-51.5137-90.1286C1006.0932,121.5032,1151.7339,373.9176,987.4381,468.696Z" transform="translate(-74.4841 -119.3309)"/><rect class="cls-2" x="335.7194" y="708.5183" width="103.8105" height="172.9866" transform="translate(-420.058 180.9928) rotate(-30)"/><rect class="cls-2" x="451.2593" y="439.8443" width="103.8105" height="360.5915" transform="translate(-317.1429 215.3344) rotate(-30)"/><rect class="cls-1" x="578.9879" y="286.1597" width="103.8105" height="360.4103" transform="translate(-223.1429 258.5967) rotate(-30)"/><rect class="cls-2" x="147.5536" y="521.2141" width="360.4224" height="103.8105" transform="translate(-317.1316 121.3349) rotate(-30)"/><rect class="cls-2" x="253.7466" y="730.4739" width="173.1171" height="103.8105" transform="translate(-420.0815 155.6406) rotate(-30)"/></svg>