<svg id="Lager_1" data-name="Lager 1" xmlns="http://www.w3.org/2000/svg" viewBox="0 0 489.5125 194.2002"><defs><style>.cls-1,.cls-4{fill:none;}.cls-2{fill:#FFFFFF;}.cls-3{fill:#FFFFFF;}.cls-4{stroke:#FFFFFF;stroke-width:0.6px;}</style></defs><path class="cls-2" d="M488.4915,108.4752a10.276,10.276,0,0,1-2.848,3.678,12.8141,12.8141,0,0,1-4.36,2.271,27.02,27.02,0,0,1-6.688.784,19.4066,19.4066,0,0,1-7.42-1.487,22.4527,22.4527,0,0,1-7.571-4.57l4.921-5.895a24.709,24.709,0,0,0,5.327,3.353,14.2383,14.2383,0,0,0,5.977,1.244,7.28,7.28,0,0,0,4.029-.946,2.9814,2.9814,0,0,0,1.433-2.624v-.108a3.2886,3.2886,0,0,0-.298-1.433,3.0286,3.0286,0,0,0-1.139-1.163,11.97,11.97,0,0,0-2.332-1.081q-1.491-.54-3.877-1.136a46.9273,46.9273,0,0,1-5.206-1.569,14.6373,14.6373,0,0,1-3.959-2.136,8.622,8.622,0,0,1-2.521-3.164,10.9722,10.9722,0,0,1-.895-4.705V87.68a10.97,10.97,0,0,1,.967-4.678,10.6472,10.6472,0,0,1,2.713-3.597,12.208,12.208,0,0,1,4.171-2.326,16.7852,16.7852,0,0,1,5.345-.811,22.6506,22.6506,0,0,1,7.653,1.244,22.2072,22.2072,0,0,1,6.409,3.57l-4.327,6.273a27.5581,27.5581,0,0,0-4.975-2.731,12.7177,12.7177,0,0,0-4.868-1,5.8987,5.8987,0,0,0-3.651.946,2.8755,2.8755,0,0,0-1.216,2.353v.108a3.4024,3.4024,0,0,0,.352,1.595,3.1822,3.1822,0,0,0,1.274,1.217,12.034,12.034,0,0,0,2.522,1.028q1.599.486,4.04,1.136a38.92,38.92,0,0,1,5.125,1.703,14.3442,14.3442,0,0,1,3.796,2.272,8.6717,8.6717,0,0,1,2.331,3.109,10.5576,10.5576,0,0,1,.787,4.273v.108a11.722,11.722,0,0,1-1.021,5.003m-42.645,5.084a28.4885,28.4885,0,0,1-10.293,1.757,16.32,16.32,0,0,1-7.014-1.46,18.633,18.633,0,0,1-6.274-4.056,18.3346,18.3346,0,0,1-4.083-6.166,20.3784,20.3784,0,0,1-1.46-7.788v-.108a19.3573,19.3573,0,0,1,11.898-18.037,20.1129,20.1129,0,0,1,7.951-1.541,27.9381,27.9381,0,0,1,4.624.352,22.0943,22.0943,0,0,1,3.867,1,18.0649,18.0649,0,0,1,3.353,1.623,25.0352,25.0352,0,0,1,3.028,2.217l-5.246,6.328a21.1724,21.1724,0,0,0-2.163-1.623,14.2094,14.2094,0,0,0-2.244-1.189,13.2482,13.2482,0,0,0-2.515-.758,15.2237,15.2237,0,0,0-2.975-.27,9.676,9.676,0,0,0-4.245.949,11.4328,11.4328,0,0,0-3.462,2.548,11.6635,11.6635,0,0,0-2.325,3.74,12.425,12.425,0,0,0-.839,4.58v.108a13.3209,13.3209,0,0,0,.839,4.798,11.3851,11.3851,0,0,0,2.379,3.821,10.8346,10.8346,0,0,0,3.624,2.521,11.5977,11.5977,0,0,0,4.624.894,13.1021,13.1021,0,0,0,7.842-2.288v-5.446h-8.383v-7.193h16.442v16.441a27.7147,27.7147,0,0,1-6.95,4.246m-43.223-23.824a4.8326,4.8326,0,0,0-1.731-4.056,7.6442,7.6442,0,0,0-4.813-1.352h-8.275v10.87h8.437a6.9139,6.9139,0,0,0,4.732-1.46,4.9413,4.9413,0,0,0,1.65-3.894Zm-.163,24.932-8.112-12.114h-6.544v12.114h-8.329V76.8092h17.307q6.759,0,10.519,3.299,3.7575,3.3,3.759,9.194v.109a11.8692,11.8692,0,0,1-2.245,7.49,13.0044,13.0044,0,0,1-5.868,4.246l9.248,13.52Zm-37.486-18.929a12.633,12.633,0,0,0-.838-4.597,11.3452,11.3452,0,0,0-6.031-6.355,11.1152,11.1152,0,0,0-4.597-.946,11.338,11.338,0,0,0-4.624.919,10.5933,10.5933,0,0,0-3.569,2.542,11.9655,11.9655,0,0,0-2.326,3.759,12.4,12.4,0,0,0-.838,4.57v.108a12.6,12.6,0,0,0,.838,4.597,11.4193,11.4193,0,0,0,6.003,6.355,11.0437,11.0437,0,0,0,4.624.947,11.3626,11.3626,0,0,0,4.597-.92,10.49,10.49,0,0,0,3.597-2.542,11.9975,11.9975,0,0,0,2.326-3.759,12.4088,12.4088,0,0,0,.838-4.57Zm7.193,7.599a19.3577,19.3577,0,0,1-10.573,10.438,21.9116,21.9116,0,0,1-16.144,0,20.0133,20.0133,0,0,1-6.355-4.164,18.62,18.62,0,0,1-4.164-6.166,19.3979,19.3979,0,0,1-1.488-7.599v-.108a19.114,19.114,0,0,1,1.515-7.598,19.3637,19.3637,0,0,1,10.573-10.439,21.9117,21.9117,0,0,1,16.144,0,20.0551,20.0551,0,0,1,6.355,4.165,18.6562,18.6562,0,0,1,4.164,6.165,19.44,19.44,0,0,1,1.487,7.599v.108a19.1356,19.1356,0,0,1-1.514,7.599m-44.142,5.138a10.276,10.276,0,0,1-2.848,3.678,12.8191,12.8191,0,0,1-4.361,2.271,18.9623,18.9623,0,0,1-5.616.784,25.081,25.081,0,0,1-8.491-1.487,22.4665,22.4665,0,0,1-7.572-4.57l4.922-5.895a24.709,24.709,0,0,0,5.327,3.353,14.2337,14.2337,0,0,0,5.976,1.244,7.2812,7.2812,0,0,0,4.03-.946,2.9835,2.9835,0,0,0,1.433-2.624v-.108a3.2745,3.2745,0,0,0-.299-1.433,3.0141,3.0141,0,0,0-1.139-1.163,11.9288,11.9288,0,0,0-2.331-1.081q-1.4925-.54-3.877-1.136a46.9476,46.9476,0,0,1-5.207-1.569,14.6157,14.6157,0,0,1-3.958-2.136,8.6348,8.6348,0,0,1-2.522-3.164,10.9879,10.9879,0,0,1-.894-4.705V87.68a10.9844,10.9844,0,0,1,.966-4.678,10.65,10.65,0,0,1,2.714-3.597,12.1893,12.1893,0,0,1,4.171-2.326,16.7852,16.7852,0,0,1,5.345-.811,22.6506,22.6506,0,0,1,7.653,1.244,22.22,22.22,0,0,1,6.409,3.57l-4.327,6.273a27.5313,27.5313,0,0,0-4.976-2.731,12.7128,12.7128,0,0,0-4.867-1,5.8947,5.8947,0,0,0-3.651.946,2.8766,2.8766,0,0,0-1.217,2.353v.108a3.4025,3.4025,0,0,0,.353,1.595,3.1822,3.1822,0,0,0,1.274,1.217,11.9884,11.9884,0,0,0,2.522,1.028q1.599.486,4.04,1.136a38.9033,38.9033,0,0,1,5.124,1.703,14.3281,14.3281,0,0,1,3.796,2.272,8.6745,8.6745,0,0,1,2.332,3.109,10.5582,10.5582,0,0,1,.786,4.273v.108a11.7218,11.7218,0,0,1-1.02,5.003m-43.031,6.192V89.9512l-10.655,16.171h-.216l-10.546-16.008v24.553h-8.221V76.8092h8.978l9.951,16.009,9.952-16.009h8.977v37.858Zm-44.139-18.929a12.633,12.633,0,0,0-.838-4.597,11.3452,11.3452,0,0,0-6.031-6.355,11.1152,11.1152,0,0,0-4.597-.946,11.338,11.338,0,0,0-4.624.919,10.5933,10.5933,0,0,0-3.569,2.542,11.9655,11.9655,0,0,0-2.326,3.759,12.4,12.4,0,0,0-.838,4.57v.108a12.6,12.6,0,0,0,.838,4.597,11.4193,11.4193,0,0,0,6.003,6.355,11.0437,11.0437,0,0,0,4.624.947,11.3626,11.3626,0,0,0,4.597-.92,10.49,10.49,0,0,0,3.597-2.542,11.9975,11.9975,0,0,0,2.326-3.759,12.4088,12.4088,0,0,0,.838-4.57Zm7.193,7.599a19.3577,19.3577,0,0,1-10.573,10.438,21.9116,21.9116,0,0,1-16.144,0,20.0133,20.0133,0,0,1-6.355-4.164,18.62,18.62,0,0,1-4.164-6.166,19.3979,19.3979,0,0,1-1.488-7.599v-.108a19.114,19.114,0,0,1,1.515-7.598,19.3637,19.3637,0,0,1,10.573-10.439,21.9117,21.9117,0,0,1,16.144,0,20.0551,20.0551,0,0,1,6.355,4.165,18.6562,18.6562,0,0,1,4.164,6.165,19.44,19.44,0,0,1,1.487,7.599v.108a19.1356,19.1356,0,0,1-1.514,7.599"/><path class="cls-2" d="M480.656,63.4417V48.2437H466.182v15.198h-8.329V25.5827h8.329v14.981h14.474V25.5827h8.329v37.859Zm-31.08-3.3a17.9855,17.9855,0,0,1-3.434,2.137,17.78,17.78,0,0,1-4.083,1.352,24.6422,24.6422,0,0,1-4.976.46,19.6058,19.6058,0,0,1-7.734-1.515,18.6674,18.6674,0,0,1-10.222-10.33,19.9469,19.9469,0,0,1-1.46-7.625v-.109a19.6577,19.6577,0,0,1,5.517-13.818,18.7784,18.7784,0,0,1,6.219-4.218,20.2368,20.2368,0,0,1,8.005-1.542,25.07,25.07,0,0,1,4.84.433,20.21,20.21,0,0,1,3.975,1.19,17.2594,17.2594,0,0,1,3.299,1.839,22.4023,22.4023,0,0,1,2.813,2.379l-5.301,6.112a20.0118,20.0118,0,0,0-4.516-3.137,11.5018,11.5018,0,0,0-5.164-1.136,10.4763,10.4763,0,0,0-7.897,3.461,11.8628,11.8628,0,0,0-2.271,3.759,12.7656,12.7656,0,0,0-.811,4.57v.108a12.9728,12.9728,0,0,0,.811,4.597,12.0385,12.0385,0,0,0,2.244,3.786,10.4144,10.4144,0,0,0,7.924,3.516,11.6035,11.6035,0,0,0,5.489-1.19,21.2994,21.2994,0,0,0,4.462-3.245l5.3,5.354a27.2193,27.2193,0,0,1-3.029,2.812m-44.967-15.63a12.633,12.633,0,0,0-.838-4.597,11.3478,11.3478,0,0,0-6.03-6.355,11.1232,11.1232,0,0,0-4.598-.946,11.338,11.338,0,0,0-4.624.919,10.5933,10.5933,0,0,0-3.569,2.542,11.9837,11.9837,0,0,0-2.326,3.759,12.4,12.4,0,0,0-.838,4.57v.108a12.6,12.6,0,0,0,.838,4.597,11.4166,11.4166,0,0,0,6.004,6.355,11.0217,11.0217,0,0,0,4.624.947,11.3626,11.3626,0,0,0,4.597-.92,10.4955,10.4955,0,0,0,3.596-2.542,11.9859,11.9859,0,0,0,2.326-3.758,12.4164,12.4164,0,0,0,.838-4.57Zm7.193,7.599a19.3577,19.3577,0,0,1-10.573,10.438,21.8984,21.8984,0,0,1-16.144,0,20.0245,20.0245,0,0,1-6.355-4.164,18.635,18.635,0,0,1-4.164-6.166,19.4144,19.4144,0,0,1-1.488-7.598v-.109a19.1175,19.1175,0,0,1,1.515-7.598,19.3577,19.3577,0,0,1,10.573-10.438,21.8984,21.8984,0,0,1,16.144,0,20.0414,20.0414,0,0,1,6.355,4.164,18.6411,18.6411,0,0,1,4.164,6.165,19.4229,19.4229,0,0,1,1.488,7.599v.108a19.1327,19.1327,0,0,1-1.515,7.599m-62.006-7.599a12.3345,12.3345,0,0,0-.838-4.597,10.79,10.79,0,0,0-2.326-3.623,10.315,10.315,0,0,0-3.596-2.353,12.4852,12.4852,0,0,0-4.651-.838h-5.551v22.823h5.551a12.8543,12.8543,0,0,0,4.651-.811,9.996,9.996,0,0,0,3.596-2.326,10.9085,10.9085,0,0,0,2.326-3.569,12.0659,12.0659,0,0,0,.838-4.597Zm7.247,7.464a17.6107,17.6107,0,0,1-4.137,6.003,19.5746,19.5746,0,0,1-6.382,4.002,22,22,0,0,1-8.139,1.461h-13.88V25.5827h13.88a22.3891,22.3891,0,0,1,8.139,1.433,19.2361,19.2361,0,0,1,6.382,3.976,17.6874,17.6874,0,0,1,4.137,5.976,18.7974,18.7974,0,0,1,1.461,7.436v.108a18.9915,18.9915,0,0,1-1.461,7.464m-47.542-13.467a4.8311,4.8311,0,0,0-1.731-4.056,7.6442,7.6442,0,0,0-4.813-1.352h-7.39v10.871h7.552a6.9141,6.9141,0,0,0,4.732-1.461,4.9413,4.9413,0,0,0,1.65-3.894Zm-.163,24.933-8.112-12.115h-5.659v12.115h-8.329V25.5827H303.66q6.759,0,10.519,3.299,3.7575,3.3,3.759,9.194v.109a11.8692,11.8692,0,0,1-2.245,7.49,13.0044,13.0044,0,0,1-5.868,4.246l9.248,13.521Zm-46.853-28.124-5.029,12.277h10.059Zm2.488-16.171a3.3655,3.3655,0,0,0-4.759,4.76,3.3655,3.3655,0,0,0,4.759-4.76m8.978,44.295L270.49,54.95H254.481l-3.461,8.492h-8.491l15.792-37.156a7.3045,7.3045,0,0,1-1.65-2.136,5.6854,5.6854,0,0,1-.621-2.623,5.7627,5.7627,0,0,1,.54-2.461,6.4345,6.4345,0,0,1,1.434-2.001,7.1343,7.1343,0,0,1,2.082-1.352,6.2761,6.2761,0,0,1,4.975,0,7.166,7.166,0,0,1,2.083,1.352,6.4479,6.4479,0,0,1,1.433,2.001,5.7785,5.7785,0,0,1,.541,2.461,5.6862,5.6862,0,0,1-.622,2.623,7.3045,7.3045,0,0,1-1.65,2.136l15.793,37.156Zm-42.206.27H224.39l-15.306-38.129h9.194l9.897,26.663,9.898-26.663h8.978Z"/><path class="cls-3" d="M444.6266,172.4946a27.3431,27.3431,0,0,1-11.02,2.1,25.7837,25.7837,0,0,1-9.662-1.745,22.2767,22.2767,0,0,1-7.4979-4.847,21.92,21.92,0,0,1-4.88-7.369,24.3494,24.3494,0,0,1-1.745-9.307v-.129a23.1265,23.1265,0,0,1,14.22-21.555,24.0188,24.0188,0,0,1,9.501-1.842,33.3405,33.3405,0,0,1,5.526.42,26.44,26.44,0,0,1,4.621,1.196,21.4991,21.4991,0,0,1,4.0071,1.939,29.8529,29.8529,0,0,1,3.62,2.65l-6.27,7.562a25.1617,25.1617,0,0,0-2.585-1.939,16.8352,16.8352,0,0,0-2.682-1.422,15.83,15.83,0,0,0-3.0059-.905,18.1888,18.1888,0,0,0-3.5541-.323,11.5572,11.5572,0,0,0-5.074,1.134,13.6676,13.6676,0,0,0-4.137,3.045,13.9707,13.9707,0,0,0-2.779,4.469,14.88,14.88,0,0,0-1.002,5.474v.129a15.9364,15.9364,0,0,0,1.002,5.733,13.6,13.6,0,0,0,2.844,4.567,12.9348,12.9348,0,0,0,4.33,3.013,13.8562,13.8562,0,0,0,5.527,1.068,15.6616,15.6616,0,0,0,9.371-2.734v-6.508h-10.018v-8.597h19.649v19.649a33.1364,33.1364,0,0,1-8.306,5.074m-69.0509,1.325v-45.244h29.4329v8.855H385.4v9.178h16.701v8.855H385.4v9.501h19.932v8.855Zm-33.7571,0v-45.244h9.954v36.26h16.59v8.984Zm-33.643,0v-45.244h9.954v36.26h16.59v8.984Zm-16.527-22.622a15.0707,15.0707,0,0,0-1.002-5.494,13.5576,13.5576,0,0,0-7.207-7.594,13.2632,13.2632,0,0,0-5.493-1.131,13.5439,13.5439,0,0,0-5.527,1.098,12.6551,12.6551,0,0,0-4.265,3.038,14.3191,14.3191,0,0,0-2.78,4.492,14.82,14.82,0,0,0-1.001,5.462v.129a15.0662,15.0662,0,0,0,1.001,5.494,13.6423,13.6423,0,0,0,7.175,7.594,13.18,13.18,0,0,0,5.526,1.131,13.5966,13.5966,0,0,0,5.494-1.098,12.5887,12.5887,0,0,0,4.298-3.038,14.36,14.36,0,0,0,2.779-4.492,14.8166,14.8166,0,0,0,1.002-5.462Zm8.596,9.081a23.1385,23.1385,0,0,1-12.636,12.474,26.18,26.18,0,0,1-19.293,0,23.9168,23.9168,0,0,1-7.594-4.977,22.25,22.25,0,0,1-4.977-7.368,23.1924,23.1924,0,0,1-1.777-9.081v-.129a22.8666,22.8666,0,0,1,1.809-9.081,23.1385,23.1385,0,0,1,12.636-12.474,26.18,26.18,0,0,1,19.293,0,23.95,23.95,0,0,1,7.595,4.977,22.2825,22.2825,0,0,1,4.976,7.368,23.2145,23.2145,0,0,1,1.778,9.081v.129a22.8638,22.8638,0,0,1-1.81,9.081m-52.799,9.598a21.5029,21.5029,0,0,1-4.104,2.553,21.2814,21.2814,0,0,1-4.88,1.616,29.4967,29.4967,0,0,1-5.946.549,23.4266,23.4266,0,0,1-9.243-1.81,22.3081,22.3081,0,0,1-12.216-12.344,23.8438,23.8438,0,0,1-1.745-9.114v-.129a23.4941,23.4941,0,0,1,6.593-16.514,22.4568,22.4568,0,0,1,7.433-5.041,24.19,24.19,0,0,1,9.566-1.842,29.9009,29.9009,0,0,1,5.784.517,24.1606,24.1606,0,0,1,4.751,1.422,20.6536,20.6536,0,0,1,3.942,2.197,26.7852,26.7852,0,0,1,3.361,2.844l-6.334,7.304a23.9726,23.9726,0,0,0-5.397-3.749,13.7458,13.7458,0,0,0-6.172-1.357,12.5153,12.5153,0,0,0-9.437,4.136,14.17,14.17,0,0,0-2.714,4.492,15.2466,15.2466,0,0,0-.97,5.462v.129a15.5009,15.5009,0,0,0,.97,5.494,14.38,14.38,0,0,0,2.682,4.524,12.4411,12.4411,0,0,0,9.469,4.201,13.8494,13.8494,0,0,0,6.56-1.422,25.4258,25.4258,0,0,0,5.332-3.878l6.334,6.399a32.7837,32.7837,0,0,1-3.619,3.361"/><path class="cls-3" d="M444.6266,172.4946a27.3431,27.3431,0,0,1-11.02,2.1,25.7837,25.7837,0,0,1-9.662-1.745,22.2767,22.2767,0,0,1-7.4979-4.847,21.92,21.92,0,0,1-4.88-7.369,24.3494,24.3494,0,0,1-1.745-9.307v-.129a23.1265,23.1265,0,0,1,14.22-21.555,24.0188,24.0188,0,0,1,9.501-1.842,33.3405,33.3405,0,0,1,5.526.42,26.44,26.44,0,0,1,4.621,1.196,21.4991,21.4991,0,0,1,4.0071,1.939,29.8529,29.8529,0,0,1,3.62,2.65l-6.27,7.562a25.1617,25.1617,0,0,0-2.585-1.939,16.8352,16.8352,0,0,0-2.682-1.422,15.83,15.83,0,0,0-3.0059-.905,18.1888,18.1888,0,0,0-3.5541-.323,11.5572,11.5572,0,0,0-5.074,1.134,13.6676,13.6676,0,0,0-4.137,3.045,13.9707,13.9707,0,0,0-2.779,4.469,14.88,14.88,0,0,0-1.002,5.474v.129a15.9364,15.9364,0,0,0,1.002,5.733,13.6,13.6,0,0,0,2.844,4.567,12.9348,12.9348,0,0,0,4.33,3.013,13.8562,13.8562,0,0,0,5.527,1.068,15.6616,15.6616,0,0,0,9.371-2.734v-6.508h-10.018v-8.597h19.649v19.649a33.1364,33.1364,0,0,1-8.306,5.074m-69.0509,1.325v-45.244h29.4329v8.855H385.4v9.178h16.701v8.855H385.4v9.501h19.932v8.855Zm-33.7571,0v-45.244h9.954v36.26h16.59v8.984Zm-33.643,0v-45.244h9.954v36.26h16.59v8.984Zm-16.527-22.622a15.0707,15.0707,0,0,0-1.002-5.494,13.5576,13.5576,0,0,0-7.207-7.594,13.2632,13.2632,0,0,0-5.493-1.131,13.5439,13.5439,0,0,0-5.527,1.098,12.6551,12.6551,0,0,0-4.265,3.038,14.3191,14.3191,0,0,0-2.78,4.492,14.82,14.82,0,0,0-1.001,5.462v.129a15.0662,15.0662,0,0,0,1.001,5.494,13.6423,13.6423,0,0,0,7.175,7.594,13.18,13.18,0,0,0,5.526,1.131,13.5966,13.5966,0,0,0,5.494-1.098,12.5887,12.5887,0,0,0,4.298-3.038,14.36,14.36,0,0,0,2.779-4.492,14.8166,14.8166,0,0,0,1.002-5.462Zm8.596,9.081a23.1385,23.1385,0,0,1-12.636,12.474,26.18,26.18,0,0,1-19.293,0,23.9168,23.9168,0,0,1-7.594-4.977,22.25,22.25,0,0,1-4.977-7.368,23.1924,23.1924,0,0,1-1.777-9.081v-.129a22.8666,22.8666,0,0,1,1.809-9.081,23.1385,23.1385,0,0,1,12.636-12.474,26.18,26.18,0,0,1,19.293,0,23.95,23.95,0,0,1,7.595,4.977,22.2825,22.2825,0,0,1,4.976,7.368,23.2145,23.2145,0,0,1,1.778,9.081v.129a22.8638,22.8638,0,0,1-1.81,9.081m-52.799,9.598a21.5029,21.5029,0,0,1-4.104,2.553,21.2814,21.2814,0,0,1-4.88,1.616,29.4967,29.4967,0,0,1-5.946.549,23.4266,23.4266,0,0,1-9.243-1.81,22.3081,22.3081,0,0,1-12.216-12.344,23.8438,23.8438,0,0,1-1.745-9.114v-.129a23.4941,23.4941,0,0,1,6.593-16.514,22.4568,22.4568,0,0,1,7.433-5.041,24.19,24.19,0,0,1,9.566-1.842,29.9009,29.9009,0,0,1,5.784.517,24.1606,24.1606,0,0,1,4.751,1.422,20.6536,20.6536,0,0,1,3.942,2.197,26.7852,26.7852,0,0,1,3.361,2.844l-6.334,7.304a23.9726,23.9726,0,0,0-5.397-3.749,13.7458,13.7458,0,0,0-6.172-1.357,12.5153,12.5153,0,0,0-9.437,4.136,14.17,14.17,0,0,0-2.714,4.492,15.2466,15.2466,0,0,0-.97,5.462v.129a15.5009,15.5009,0,0,0,.97,5.494,14.38,14.38,0,0,0,2.682,4.524,12.4411,12.4411,0,0,0,9.469,4.201,13.8494,13.8494,0,0,0,6.56-1.422,25.4258,25.4258,0,0,0,5.332-3.878l6.334,6.399a32.7837,32.7837,0,0,1-3.619,3.361"/><path class="cls-3" d="M433.6066,174.8946a26.1892,26.1892,0,0,1-9.7735-1.7666,22.6756,22.6756,0,0,1-7.5976-4.9121,22.3111,22.3111,0,0,1-4.9463-7.4688,24.7532,24.7532,0,0,1-1.7676-9.4209v-.1289a23.4316,23.4316,0,0,1,14.4024-21.831,24.4369,24.4369,0,0,1,9.6191-1.8653,33.795,33.795,0,0,1,5.5752.4238,26.8278,26.8278,0,0,1,4.6738,1.21,21.871,21.871,0,0,1,4.0625,1.9658,30.3163,30.3163,0,0,1,3.6563,2.6768l.2256.1924-6.6524,8.0224-.2314-.1963a25.2719,25.2719,0,0,0-2.5537-1.915,16.7075,16.7075,0,0,0-2.6358-1.3984,15.6145,15.6145,0,0,0-2.9482-.8868,18.0482,18.0482,0,0,0-3.4952-.3173,11.3179,11.3179,0,0,0-4.9443,1.1045,13.4173,13.4173,0,0,0-4.0469,2.9785,13.7272,13.7272,0,0,0-2.72,4.375,14.6428,14.6428,0,0,0-.9814,5.3642v.1289a15.7228,15.7228,0,0,0,.9824,5.626,13.3567,13.3567,0,0,0,2.7812,4.4678,12.7319,12.7319,0,0,0,4.2305,2.9443,13.6436,13.6436,0,0,0,5.4092,1.043,15.5082,15.5082,0,0,0,9.0713-2.5889V156.668H432.9835v-9.1963h20.249V167.56l-.1054.09a33.5816,33.5816,0,0,1-8.38,5.12h0A27.773,27.773,0,0,1,433.6066,174.8946Zm-.0635-46.794a23.8215,23.8215,0,0,0-9.3848,1.8184,22.8811,22.8811,0,0,0-14.0371,21.2783v.1289a24.1723,24.1723,0,0,0,1.7227,9.1943,21.7508,21.7508,0,0,0,4.8134,7.27,22.1014,22.1014,0,0,0,7.3985,4.7812,25.61,25.61,0,0,0,9.5508,1.7237,27.1609,27.1609,0,0,0,10.9-2.0762h0a33.0767,33.0767,0,0,0,8.1259-4.9365v-19.211h-19.05v7.9971h10.0186v6.9629l-.125.09a16.0336,16.0336,0,0,1-9.5459,2.7891,14.2164,14.2164,0,0,1-5.6455-1.0918,13.3225,13.3225,0,0,1-4.43-3.083,13.9624,13.9624,0,0,1-2.9063-4.665,16.3219,16.3219,0,0,1-1.0214-5.8409v-.1289a15.2433,15.2433,0,0,1,1.0224-5.583,14.3418,14.3418,0,0,1,2.8389-4.5644,14.0468,14.0468,0,0,1,4.2265-3.1114,11.9152,11.9152,0,0,1,5.2041-1.163,18.5408,18.5408,0,0,1,3.6124.3291,16.163,16.163,0,0,1,3.0634.9218,17.3083,17.3083,0,0,1,2.7295,1.4473,25.4846,25.4846,0,0,1,2.3838,1.7666l5.8867-7.1006a29.6565,29.6565,0,0,0-3.3574-2.4326,21.2194,21.2194,0,0,0-3.9512-1.9111,26.18,26.18,0,0,0-4.5683-1.1827A33.1222,33.1222,0,0,0,433.5431,128.1006Zm-155.5967,46.794a25.0773,25.0773,0,0,1-9.7471-1.8653,24.3341,24.3341,0,0,1-7.6875-5.04,22.6519,22.6519,0,0,1-5.0439-7.4658,23.597,23.597,0,0,1-1.8-9.1973v-.1289a23.2819,23.2819,0,0,1,1.832-9.1992,23.448,23.448,0,0,1,12.7969-12.6328,26.4848,26.4848,0,0,1,19.5244.001,24.3327,24.3327,0,0,1,7.69,5.039,22.7055,22.7055,0,0,1,5.042,7.4658,23.6153,23.6153,0,0,1,1.8017,9.1973v.1289a23.2639,23.2639,0,0,1-1.8349,9.1992h0A23.4394,23.4394,0,0,1,287.7238,173.03,25.3326,25.3326,0,0,1,277.9464,174.8946Zm.1289-46.794a24.7094,24.7094,0,0,0-9.5478,1.8194,22.8341,22.8341,0,0,0-12.4756,12.3144,22.6836,22.6836,0,0,0-1.7842,8.9629v.1289a23.0046,23.0046,0,0,0,1.7529,8.9649,22.0854,22.0854,0,0,0,4.9112,7.27,23.76,23.76,0,0,0,7.5,4.915,25.8792,25.8792,0,0,0,19.0615-.001A22.8324,22.8324,0,0,0,299.9689,160.16h0a22.6829,22.6829,0,0,0,1.7861-8.9629v-.1289A23.0221,23.0221,0,0,0,300,142.1036a22.0937,22.0937,0,0,0-4.9092-7.2706,23.7442,23.7442,0,0,0-7.5019-4.914A24.4849,24.4849,0,0,0,278.0753,128.1006Zm-45.56,46.794a23.8445,23.8445,0,0,1-9.36-1.834,22.6018,22.6018,0,0,1-12.3765-12.5068,24.2456,24.2456,0,0,1-1.7671-9.2276v-.1289a24.0176,24.0176,0,0,1,1.7676-9.1953,23.7716,23.7716,0,0,1,4.91-7.5273,22.8777,22.8777,0,0,1,7.5312-5.1084,24.5985,24.5985,0,0,1,9.6831-1.8653,30.3492,30.3492,0,0,1,5.8423.5225,24.6161,24.6161,0,0,1,4.81,1.4394,21.1174,21.1174,0,0,1,4,2.23,27.2245,27.2245,0,0,1,3.3974,2.876l.1983.1973-6.7178,7.747-.2275-.205a23.7449,23.7449,0,0,0-5.3281-3.7032,13.5155,13.5155,0,0,0-6.04-1.3261,12.2146,12.2146,0,0,0-9.2144,4.0371,13.9374,13.9374,0,0,0-2.6562,4.3974,15.0253,15.0253,0,0,0-.9507,5.3555v.1289a15.2746,15.2746,0,0,0,.9512,5.3887,14.1562,14.1562,0,0,0,2.626,4.4316,12.147,12.147,0,0,0,9.2441,4.1,13.6178,13.6178,0,0,0,6.4194-1.3877,25.2118,25.2118,0,0,0,5.2686-3.833l.2129-.1972,6.7412,6.81-.1963.211a33.2941,33.2941,0,0,1-3.6523,3.3925h0a21.948,21.948,0,0,1-4.1612,2.5879,21.6653,21.6653,0,0,1-4.9482,1.64A30.0063,30.0063,0,0,1,232.5157,174.8946Zm.3877-46.794a23.98,23.98,0,0,0-9.4482,1.8184,22.2638,22.2638,0,0,0-7.3354,4.9736,23.1944,23.1944,0,0,0-6.5083,16.3047v.1289a23.6535,23.6535,0,0,0,1.7231,9.001A22.0006,22.0006,0,0,0,223.39,172.5079a23.2408,23.2408,0,0,0,9.1259,1.7871,29.37,29.37,0,0,0,5.8853-.543,21.0969,21.0969,0,0,0,4.811-1.5928,21.3825,21.3825,0,0,0,4.0469-2.5176h0a32.4557,32.4557,0,0,0,3.3887-3.12l-5.9268-5.9883a25.53,25.53,0,0,1-5.1821,3.7266,14.2077,14.2077,0,0,1-6.7,1.457,12.7479,12.7479,0,0,1-9.6938-4.3027,14.7432,14.7432,0,0,1-2.7378-4.6172,15.86,15.86,0,0,1-.9893-5.6v-.1289a15.6209,15.6209,0,0,1,.99-5.5684,14.5319,14.5319,0,0,1,2.771-4.5859,12.808,12.808,0,0,1,9.66-4.2353,14.0959,14.0959,0,0,1,6.3052,1.3886,24.1016,24.1016,0,0,1,5.2363,3.5908l5.95-6.8623a26.6388,26.6388,0,0,0-3.124-2.6152,20.4514,20.4514,0,0,0-3.8848-2.165,23.9857,23.9857,0,0,0-4.6919-1.4043A29.7716,29.7716,0,0,0,232.9034,128.1006ZM405.631,174.1192H375.2755V128.2754h30.0332v9.4551H385.6993v8.5781h16.7012v9.4551H385.6993v8.9014H405.631Zm-29.7559-.6h29.1563v-8.2549H385.1V155.1641h16.7012v-8.2559H385.1v-9.7773h19.6094V128.875h-28.834Zm-7.2129.6H341.5187V128.2754h10.5537v36.2608h16.59Zm-26.5439-.6h25.9443v-8.3838h-16.59V128.875h-9.3545Zm-7.0986.6H307.8761V128.2754H318.43v36.2608h16.59Zm-26.544-.6H334.42v-8.3838H317.83V128.875h-9.3545Zm-30.4-7.8028a13.52,13.52,0,0,1-5.6494-1.1582,13.9286,13.9286,0,0,1-7.33-7.7588,15.4037,15.4037,0,0,1-1.0224-5.6025v-.1289a15.1666,15.1666,0,0,1,1.0224-5.5713,14.6823,14.6823,0,0,1,2.8379-4.5859,13.0283,13.0283,0,0,1,4.3653-3.1094,13.9093,13.9093,0,0,1,5.6474-1.123,13.6082,13.6082,0,0,1,5.6162,1.1572,13.8491,13.8491,0,0,1,7.3633,7.7588,15.4342,15.4342,0,0,1,1.0225,5.6025v.1289a15.1736,15.1736,0,0,1-1.0225,5.5713,14.7385,14.7385,0,0,1-2.8369,4.5859,12.9414,12.9414,0,0,1-4.3994,3.11A13.9578,13.9578,0,0,1,278.0753,165.7168Zm-.1289-28.4384a13.32,13.32,0,0,0-5.4053,1.0722,12.4353,12.4353,0,0,0-4.166,2.9668,14.0889,14.0889,0,0,0-2.7207,4.3985,14.5751,14.5751,0,0,0-.9814,5.3525v.1289a14.8161,14.8161,0,0,0,.9814,5.3857,13.3425,13.3425,0,0,0,7.02,7.4288,12.9226,12.9226,0,0,0,5.4013,1.1054,13.3432,13.3432,0,0,0,5.374-1.0742,12.3216,12.3216,0,0,0,4.1973-2.9658,14.1158,14.1158,0,0,0,2.7207-4.3984,14.574,14.574,0,0,0,.9815-5.3526v-.1289a14.8483,14.8483,0,0,0-.9815-5.3857,13.2676,13.2676,0,0,0-7.0508-7.4287A13.0275,13.0275,0,0,0,277.9464,137.2784Z"/><path class="cls-3" d="M433.6066,174.8946a26.1892,26.1892,0,0,1-9.7735-1.7666,22.6756,22.6756,0,0,1-7.5976-4.9121,22.3111,22.3111,0,0,1-4.9463-7.4688,24.7532,24.7532,0,0,1-1.7676-9.4209v-.1289a23.4316,23.4316,0,0,1,14.4024-21.831,24.4369,24.4369,0,0,1,9.6191-1.8653,33.795,33.795,0,0,1,5.5752.4238,26.8278,26.8278,0,0,1,4.6738,1.21,21.871,21.871,0,0,1,4.0625,1.9658,30.3163,30.3163,0,0,1,3.6563,2.6768l.2256.1924-6.6524,8.0224-.2314-.1963a25.2719,25.2719,0,0,0-2.5537-1.915,16.7075,16.7075,0,0,0-2.6358-1.3984,15.6145,15.6145,0,0,0-2.9482-.8868,18.0482,18.0482,0,0,0-3.4952-.3173,11.3179,11.3179,0,0,0-4.9443,1.1045,13.4173,13.4173,0,0,0-4.0469,2.9785,13.7272,13.7272,0,0,0-2.72,4.375,14.6428,14.6428,0,0,0-.9814,5.3642v.1289a15.7228,15.7228,0,0,0,.9824,5.626,13.3567,13.3567,0,0,0,2.7812,4.4678,12.7319,12.7319,0,0,0,4.2305,2.9443,13.6436,13.6436,0,0,0,5.4092,1.043,15.5082,15.5082,0,0,0,9.0713-2.5889V156.668H432.9835v-9.1963h20.249V167.56l-.1054.09a33.5816,33.5816,0,0,1-8.38,5.12h0A27.773,27.773,0,0,1,433.6066,174.8946Zm-.0635-46.794a23.8215,23.8215,0,0,0-9.3848,1.8184,22.8811,22.8811,0,0,0-14.0371,21.2783v.1289a24.1723,24.1723,0,0,0,1.7227,9.1943,21.7508,21.7508,0,0,0,4.8134,7.27,22.1014,22.1014,0,0,0,7.3985,4.7812,25.61,25.61,0,0,0,9.5508,1.7237,27.1609,27.1609,0,0,0,10.9-2.0762h0a33.0767,33.0767,0,0,0,8.1259-4.9365v-19.211h-19.05v7.9971h10.0186v6.9629l-.125.09a16.0336,16.0336,0,0,1-9.5459,2.7891,14.2164,14.2164,0,0,1-5.6455-1.0918,13.3225,13.3225,0,0,1-4.43-3.083,13.9624,13.9624,0,0,1-2.9063-4.665,16.3219,16.3219,0,0,1-1.0214-5.8409v-.1289a15.2433,15.2433,0,0,1,1.0224-5.583,14.3418,14.3418,0,0,1,2.8389-4.5644,14.0468,14.0468,0,0,1,4.2265-3.1114,11.9152,11.9152,0,0,1,5.2041-1.163,18.5408,18.5408,0,0,1,3.6124.3291,16.163,16.163,0,0,1,3.0634.9218,17.3083,17.3083,0,0,1,2.7295,1.4473,25.4846,25.4846,0,0,1,2.3838,1.7666l5.8867-7.1006a29.6565,29.6565,0,0,0-3.3574-2.4326,21.2194,21.2194,0,0,0-3.9512-1.9111,26.18,26.18,0,0,0-4.5683-1.1827A33.1222,33.1222,0,0,0,433.5431,128.1006Zm-155.5967,46.794a25.0773,25.0773,0,0,1-9.7471-1.8653,24.3341,24.3341,0,0,1-7.6875-5.04,22.6519,22.6519,0,0,1-5.0439-7.4658,23.597,23.597,0,0,1-1.8-9.1973v-.1289a23.2819,23.2819,0,0,1,1.832-9.1992,23.448,23.448,0,0,1,12.7969-12.6328,26.4848,26.4848,0,0,1,19.5244.001,24.3327,24.3327,0,0,1,7.69,5.039,22.7055,22.7055,0,0,1,5.042,7.4658,23.6153,23.6153,0,0,1,1.8017,9.1973v.1289a23.2639,23.2639,0,0,1-1.8349,9.1992h0A23.4394,23.4394,0,0,1,287.7238,173.03,25.3326,25.3326,0,0,1,277.9464,174.8946Zm.1289-46.794a24.7094,24.7094,0,0,0-9.5478,1.8194,22.8341,22.8341,0,0,0-12.4756,12.3144,22.6836,22.6836,0,0,0-1.7842,8.9629v.1289a23.0046,23.0046,0,0,0,1.7529,8.9649,22.0854,22.0854,0,0,0,4.9112,7.27,23.76,23.76,0,0,0,7.5,4.915,25.8792,25.8792,0,0,0,19.0615-.001A22.8324,22.8324,0,0,0,299.9689,160.16h0a22.6829,22.6829,0,0,0,1.7861-8.9629v-.1289A23.0221,23.0221,0,0,0,300,142.1036a22.0937,22.0937,0,0,0-4.9092-7.2706,23.7442,23.7442,0,0,0-7.5019-4.914A24.4849,24.4849,0,0,0,278.0753,128.1006Zm-45.56,46.794a23.8445,23.8445,0,0,1-9.36-1.834,22.6018,22.6018,0,0,1-12.3765-12.5068,24.2456,24.2456,0,0,1-1.7671-9.2276v-.1289a24.0176,24.0176,0,0,1,1.7676-9.1953,23.7716,23.7716,0,0,1,4.91-7.5273,22.8777,22.8777,0,0,1,7.5312-5.1084,24.5985,24.5985,0,0,1,9.6831-1.8653,30.3492,30.3492,0,0,1,5.8423.5225,24.6161,24.6161,0,0,1,4.81,1.4394,21.1174,21.1174,0,0,1,4,2.23,27.2245,27.2245,0,0,1,3.3974,2.876l.1983.1973-6.7178,7.747-.2275-.205a23.7449,23.7449,0,0,0-5.3281-3.7032,13.5155,13.5155,0,0,0-6.04-1.3261,12.2146,12.2146,0,0,0-9.2144,4.0371,13.9374,13.9374,0,0,0-2.6562,4.3974,15.0253,15.0253,0,0,0-.9507,5.3555v.1289a15.2746,15.2746,0,0,0,.9512,5.3887,14.1562,14.1562,0,0,0,2.626,4.4316,12.147,12.147,0,0,0,9.2441,4.1,13.6178,13.6178,0,0,0,6.4194-1.3877,25.2118,25.2118,0,0,0,5.2686-3.833l.2129-.1972,6.7412,6.81-.1963.211a33.2941,33.2941,0,0,1-3.6523,3.3925h0a21.948,21.948,0,0,1-4.1612,2.5879,21.6653,21.6653,0,0,1-4.9482,1.64A30.0063,30.0063,0,0,1,232.5157,174.8946Zm.3877-46.794a23.98,23.98,0,0,0-9.4482,1.8184,22.2638,22.2638,0,0,0-7.3354,4.9736,23.1944,23.1944,0,0,0-6.5083,16.3047v.1289a23.6535,23.6535,0,0,0,1.7231,9.001A22.0006,22.0006,0,0,0,223.39,172.5079a23.2408,23.2408,0,0,0,9.1259,1.7871,29.37,29.37,0,0,0,5.8853-.543,21.0969,21.0969,0,0,0,4.811-1.5928,21.3825,21.3825,0,0,0,4.0469-2.5176h0a32.4557,32.4557,0,0,0,3.3887-3.12l-5.9268-5.9883a25.53,25.53,0,0,1-5.1821,3.7266,14.2077,14.2077,0,0,1-6.7,1.457,12.7479,12.7479,0,0,1-9.6938-4.3027,14.7432,14.7432,0,0,1-2.7378-4.6172,15.86,15.86,0,0,1-.9893-5.6v-.1289a15.6209,15.6209,0,0,1,.99-5.5684,14.5319,14.5319,0,0,1,2.771-4.5859,12.808,12.808,0,0,1,9.66-4.2353,14.0959,14.0959,0,0,1,6.3052,1.3886,24.1016,24.1016,0,0,1,5.2363,3.5908l5.95-6.8623a26.6388,26.6388,0,0,0-3.124-2.6152,20.4514,20.4514,0,0,0-3.8848-2.165,23.9857,23.9857,0,0,0-4.6919-1.4043A29.7716,29.7716,0,0,0,232.9034,128.1006ZM405.631,174.1192H375.2755V128.2754h30.0332v9.4551H385.6993v8.5781h16.7012v9.4551H385.6993v8.9014H405.631Zm-29.7559-.6h29.1563v-8.2549H385.1V155.1641h16.7012v-8.2559H385.1v-9.7773h19.6094V128.875h-28.834Zm-7.2129.6H341.5187V128.2754h10.5537v36.2608h16.59Zm-26.5439-.6h25.9443v-8.3838h-16.59V128.875h-9.3545Zm-7.0986.6H307.8761V128.2754H318.43v36.2608h16.59Zm-26.544-.6H334.42v-8.3838H317.83V128.875h-9.3545Zm-30.4-7.8028a13.52,13.52,0,0,1-5.6494-1.1582,13.9286,13.9286,0,0,1-7.33-7.7588,15.4037,15.4037,0,0,1-1.0224-5.6025v-.1289a15.1666,15.1666,0,0,1,1.0224-5.5713,14.6823,14.6823,0,0,1,2.8379-4.5859,13.0283,13.0283,0,0,1,4.3653-3.1094,13.9093,13.9093,0,0,1,5.6474-1.123,13.6082,13.6082,0,0,1,5.6162,1.1572,13.8491,13.8491,0,0,1,7.3633,7.7588,15.4342,15.4342,0,0,1,1.0225,5.6025v.1289a15.1736,15.1736,0,0,1-1.0225,5.5713,14.7385,14.7385,0,0,1-2.8369,4.5859,12.9414,12.9414,0,0,1-4.3994,3.11A13.9578,13.9578,0,0,1,278.0753,165.7168Zm-.1289-28.4384a13.32,13.32,0,0,0-5.4053,1.0722,12.4353,12.4353,0,0,0-4.166,2.9668,14.0889,14.0889,0,0,0-2.7207,4.3985,14.5751,14.5751,0,0,0-.9814,5.3525v.1289a14.8161,14.8161,0,0,0,.9814,5.3857,13.3425,13.3425,0,0,0,7.02,7.4288,12.9226,12.9226,0,0,0,5.4013,1.1054,13.3432,13.3432,0,0,0,5.374-1.0742,12.3216,12.3216,0,0,0,4.1973-2.9658,14.1158,14.1158,0,0,0,2.7207-4.3984,14.574,14.574,0,0,0,.9815-5.3526v-.1289a14.8483,14.8483,0,0,0-.9815-5.3857,13.2676,13.2676,0,0,0-7.0508-7.4287A13.0275,13.0275,0,0,0,277.9464,137.2784Z"/><polygon class="cls-3" points="459.481 173.851 459.481 128.608 488.914 128.608 488.914 137.462 469.305 137.462 469.305 146.64 486.006 146.64 486.006 155.495 469.305 155.495 469.305 164.996 489.237 164.996 489.237 173.851 459.481 173.851"/><polygon class="cls-3" points="459.481 173.851 459.481 128.608 488.914 128.608 488.914 137.462 469.305 137.462 469.305 146.64 486.006 146.64 486.006 155.495 469.305 155.495 469.305 164.996 489.237 164.996 489.237 173.851 459.481 173.851"/><polygon class="cls-4" points="459.481 173.851 459.481 128.608 488.914 128.608 488.914 137.462 469.305 137.462 469.305 146.64 486.006 146.64 486.006 155.495 469.305 155.495 469.305 164.996 489.237 164.996 489.237 173.851 459.481 173.851"/><polygon class="cls-4" points="459.481 173.851 459.481 128.608 488.914 128.608 488.914 137.462 469.305 137.462 469.305 146.64 486.006 146.64 486.006 155.495 469.305 155.495 469.305 164.996 489.237 164.996 489.237 173.851 459.481 173.851"/><polyline class="cls-1" points="-41.959 -42.18 -41.959 235.615 530.639 235.615 530.639 -42.18"/><rect class="cls-2" x="108.3014" y="38.4541" width="28.25" height="15.2358"/><rect class="cls-2" x="140.1432" y="57.2818" width="15.3066" height="28.25"/><rect class="cls-2" x="57.2794" y="108.3047" width="47.4087" height="28.25"/><path class="cls-2" d="M108.3014,38.8487c.12-14.8647-22.883-14.885-22.7739-.003l-28.25-.123c-.01-51.6414,79.2928-51.6182,79.2739-.0029Z"/><path class="cls-3" d="M96.9117,194.2c-21.91,0-39.6309-16.8345-39.6337-39.083l28.25-.1289c-.1207,14.8645,22.8832,14.8844,22.7739.003l28.25.123C136.5534,177.4349,118.606,194.2,96.9117,194.2Z"/><path class="cls-3" d="M38.7194,136.5557c-51.6406.0122-51.62-79.2928-.0035-79.2739l.1289,28.25c-14.8643-.12-14.8851,22.883-.0034,22.7739Z"/><path class="cls-2" d="M155.1134,136.5557l-.1289-28.25c14.8645.1208,14.8842-22.7534.0029-22.7744l.1231-28.25C206.7508,57.2705,206.7293,136.5741,155.1134,136.5557Z"/><rect class="cls-3" x="57.278" y="140.1465" width="28.25" height="15.2363"/><rect class="cls-3" x="108.3014" y="57.2901" width="28.25" height="98.1279"/><rect class="cls-2" x="57.278" y="38.4537" width="28.25" height="98.0786"/><rect class="cls-3" x="89.1193" y="57.2818" width="47.4092" height="28.25"/><rect class="cls-3" x="38.4855" y="57.2818" width="15.2012" height="28.25"/><rect class="cls-2" x="140.1432" y="108.3047" width="15.3066" height="28.25"/><rect class="cls-3" x="38.4147" y="108.3047" width="15.272" height="28.25"/></svg>